<?xml version="1.0" encoding="UTF-8"?><svg xmlns="http://www.w3.org/2000/svg" xmlns:xlink="http://www.w3.org/1999/xlink" viewBox="0 0 1700 600"><defs><style>.cls-1{fill:#000;}.cls-1,.cls-2,.cls-3{stroke-width:0px;}.cls-4{isolation:isolate;}.cls-2,.cls-5{fill:#7f47dd;}.cls-6{clip-path:url(#clippath);}.cls-7{mix-blend-mode:luminosity;}.cls-3{fill:#a4abd5;}</style><clipPath id="clippath"><rect id="mask-2" class="cls-2" x="-1578.14" y="-1325" width="1400" height="1050" transform="translate(-1678.14 78.14) rotate(90)"/></clipPath></defs><g class="cls-4"><g id="logos"><g id="text_only"><g id="text" class="cls-7"><path class="cls-1" d="M36.49,260.84c-13.77-4.08-25.92-9.67-36.49-16.78l9.6-50.93h10.08c13.44,40.8,36.64,61.19,69.61,61.19,13.12,0,23.6-2.83,31.45-8.49,7.84-5.66,11.76-13.23,11.76-22.7,0-7.11-2.32-13.23-6.96-18.36-4.64-5.13-10.41-9.41-17.28-12.83-6.89-3.42-16.56-7.63-29.05-12.63-14.73-5.53-26.73-10.79-36.01-15.79-9.29-5-17.21-11.58-23.76-19.74-6.56-8.16-9.84-18.29-9.84-30.4,0-17.63,6.64-31.45,19.92-41.46,13.28-10,31.93-15,55.93-15,14.08,0,27.92,1.32,41.53,3.95,13.6,2.63,24.56,6.19,32.89,10.66l-8.64,45.8h-10.08c-7.04-16.58-15.53-28.88-25.44-36.91-9.92-8.02-21.77-12.04-35.53-12.04-12.17,0-21.37,2.37-27.61,7.11-6.24,4.74-9.36,10.66-9.36,17.77,0,8.69,4,15.66,12,20.92,8,5.27,20.48,11.45,37.45,18.56,15.68,6.32,28.4,12.11,38.17,17.37,9.76,5.27,18.16,12.44,25.21,21.52,7.04,9.08,10.56,20.2,10.56,33.36,0,20.53-8.01,36-24,46.39-16.01,10.4-36.33,15.6-60.97,15.6-16.32,0-31.37-2.04-45.13-6.12Z"/><path class="cls-1" d="M235.49,254.53c-15.53-8.29-27.85-20.33-36.97-36.12-9.12-15.79-13.68-34.35-13.68-55.67,0-22.37,4.56-41.52,13.68-57.44,9.12-15.92,21.44-27.96,36.97-36.12,15.52-8.16,32.56-12.24,51.13-12.24s35.6,4.08,51.13,12.24c15.52,8.16,27.85,20.2,36.97,36.12,9.12,15.93,13.68,35.07,13.68,57.44s-4.56,39.87-13.68,55.67c-9.12,15.79-21.45,27.83-36.97,36.12-15.53,8.29-32.57,12.44-51.13,12.44s-35.61-4.15-51.13-12.44ZM324.3,235.77c9.12-12.89,13.68-37.37,13.68-73.43,0-23.69-2.33-42.44-6.96-56.26-4.64-13.82-10.73-23.49-18.24-29.02-7.52-5.53-16.25-8.29-26.17-8.29s-18.65,2.76-26.17,8.29c-7.52,5.53-13.61,15.2-18.24,29.02-4.64,13.82-6.96,32.57-6.96,56.26,0,36.06,4.56,60.54,13.68,73.43,9.12,12.9,21.68,19.35,37.69,19.35s28.57-6.45,37.69-19.35Z"/><path class="cls-1" d="M447.92,251.36c-10.89-10.39-16.32-28.36-16.32-53.89v-120.02h-33.61v-14.21c16-2.1,30.08-8.81,42.25-20.13,12.16-11.31,21.92-25.66,29.29-43.04h10.08v205.3c0,23.95,10.88,35.93,32.65,35.93,8,0,14.72-2.1,20.16-6.32,5.44-4.21,8.16-9.34,8.16-15.4h4.8c0,14.48-4.64,26-13.92,34.55-9.29,8.55-21.77,12.83-37.45,12.83-19.85,0-35.21-5.2-46.09-15.6ZM448.4,63.24h93.14v13.82h-93.14v-13.82Z"/><path class="cls-1" d="M579.71,254.53c-11.69-8.29-17.52-19.28-17.52-32.97,0-16.58,8.56-31.32,25.68-44.22,17.12-12.89,37.61-22.96,61.45-30.2,23.84-7.24,44.72-10.86,62.65-10.86l.48,14.61c-15.05,0-30.48,2.57-46.33,7.7-15.84,5.13-29.05,12.63-39.61,22.5-10.56,9.87-15.84,21.26-15.84,34.15,0,9.74,3.04,17.57,9.12,23.49,6.08,5.92,13.76,8.88,23.04,8.88,11.52,0,21.76-4.21,30.73-12.63,8.96-8.42,16.08-19.01,21.37-31.78,5.28-12.76,8.08-25.47,8.4-38.1h7.68v50.14h-7.2c-2.88,8.16-8.01,16.19-15.36,24.09-7.37,7.89-16.65,14.48-27.85,19.74-11.21,5.26-23.69,7.9-37.45,7.9-17.28,0-31.77-4.15-43.45-12.44ZM706.21,233.01v-20.92l-2.88-20.53v-76.99c0-28.16-12.32-42.24-36.97-42.24-10.25,0-17.93,2.04-23.04,6.12-5.12,4.09-10.25,10.07-15.36,17.96-4.16,6.32-7.85,10.92-11.04,13.82-3.2,2.9-7.85,4.34-13.92,4.34-6.72,0-12-1.9-15.84-5.72-3.84-3.81-5.76-8.49-5.76-14.01,0-7.11,3.52-13.55,10.56-19.35,7.04-5.79,16.72-10.33,29.05-13.62,12.32-3.29,26.32-4.93,42.01-4.93,28.81,0,50.73,4.81,65.77,14.41,15.04,9.61,22.56,24.02,22.56,43.23v106.6c0,10.79,3.36,16.19,10.08,16.19,3.84,0,7.12-1.58,9.84-4.74,2.72-3.16,4.08-7.5,4.08-13.03h3.36c0,14.21-3.6,25.66-10.8,34.35-7.2,8.68-17.52,13.03-30.97,13.03-20.49,0-30.73-11.31-30.73-33.95Z"/><path class="cls-1" d="M36.49,593.81c-13.77-4.08-25.92-9.67-36.49-16.78l9.6-50.93h10.08c13.44,40.8,36.64,61.19,69.61,61.19,13.12,0,23.6-2.83,31.45-8.49,7.84-5.66,11.76-13.23,11.76-22.7,0-7.11-2.32-13.23-6.96-18.36-4.64-5.13-10.41-9.41-17.28-12.83-6.89-3.42-16.56-7.63-29.05-12.63-14.73-5.53-26.73-10.79-36.01-15.79-9.29-5-17.21-11.58-23.76-19.74-6.56-8.15-9.84-18.29-9.84-30.4,0-17.63,6.64-31.45,19.92-41.45,13.28-10,31.93-15,55.93-15,14.08,0,27.92,1.32,41.53,3.95,13.6,2.63,24.56,6.19,32.89,10.66l-8.64,45.8h-10.08c-7.04-16.58-15.53-28.88-25.44-36.91-9.92-8.03-21.77-12.04-35.53-12.04-12.17,0-21.37,2.37-27.61,7.11-6.24,4.74-9.36,10.66-9.36,17.77,0,8.68,4,15.66,12,20.92,8,5.27,20.48,11.45,37.45,18.56,15.68,6.32,28.4,12.11,38.17,17.37,9.76,5.27,18.16,12.44,25.21,21.52,7.04,9.08,10.56,20.2,10.56,33.36,0,20.53-8.01,35.99-24,46.39-16.01,10.39-36.33,15.59-60.97,15.59-16.32,0-31.37-2.04-45.13-6.12Z"/><path class="cls-1" d="M234.77,584.33c-10.89-10.4-16.32-28.36-16.32-53.89v-120.02h-33.61v-14.21c16-2.1,30.08-8.82,42.25-20.14,12.16-11.31,21.92-25.66,29.29-43.03h10.08v205.3c0,23.95,10.88,35.93,32.65,35.93,8,0,14.72-2.1,20.16-6.32,5.44-4.21,8.16-9.34,8.16-15.4h4.8c0,14.48-4.64,25.99-13.92,34.54-9.29,8.55-21.77,12.83-37.45,12.83-19.85,0-35.21-5.2-46.09-15.59ZM235.25,396.21h93.14v13.82h-93.14v-13.82Z"/><path class="cls-1" d="M366.55,587.49c-11.69-8.29-17.52-19.28-17.52-32.97,0-16.58,8.56-31.32,25.68-44.22,17.12-12.89,37.61-22.96,61.45-30.2,23.84-7.24,44.72-10.86,62.65-10.86l.48,14.61c-15.05,0-30.49,2.57-46.33,7.7-15.84,5.13-29.05,12.63-39.61,22.51-10.56,9.87-15.84,21.26-15.84,34.15,0,9.74,3.04,17.57,9.12,23.49,6.07,5.92,13.76,8.88,23.04,8.88,11.52,0,21.76-4.21,30.73-12.64,8.96-8.42,16.08-19.01,21.36-31.78,5.28-12.76,8.08-25.46,8.4-38.1h7.68v50.14h-7.2c-2.88,8.16-8,16.19-15.36,24.08-7.37,7.9-16.65,14.48-27.85,19.74-11.21,5.26-23.69,7.9-37.45,7.9-17.28,0-31.77-4.14-43.45-12.44ZM493.06,565.97v-20.92l-2.88-20.53v-76.99c0-28.16-12.33-42.24-36.97-42.24-10.25,0-17.93,2.04-23.04,6.12-5.12,4.08-10.25,10.07-15.36,17.96-4.16,6.32-7.85,10.92-11.04,13.82-3.2,2.9-7.85,4.34-13.92,4.34-6.72,0-12-1.91-15.84-5.72-3.84-3.81-5.76-8.49-5.76-14.02,0-7.11,3.52-13.55,10.56-19.34,7.04-5.79,16.72-10.33,29.05-13.62,12.32-3.29,26.32-4.94,42.01-4.94,28.8,0,50.72,4.81,65.77,14.41,15.04,9.61,22.56,24.02,22.56,43.23v106.59c0,10.8,3.36,16.19,10.08,16.19,3.84,0,7.12-1.58,9.84-4.74,2.72-3.16,4.08-7.5,4.08-13.03h3.36c0,14.21-3.6,25.66-10.8,34.35-7.2,8.68-17.52,13.03-30.97,13.03-20.49,0-30.73-11.31-30.73-33.95Z"/><path class="cls-1" d="M576.11,593.61v-7.89c10.88-2.1,18.32-5.66,22.32-10.66,4-5,6-13.82,6-26.45v-107.39c0-12.63-2-21.45-6-26.45-4.01-5-11.45-8.55-22.32-10.66v-7.89h76.33v152.39c0,12.63,1.99,21.46,6,26.45,4,5,11.44,8.56,22.32,10.66v7.89h-104.66ZM602.75,364.03c-6.56-5.39-9.84-11.9-9.84-19.54s3.28-14.08,9.84-19.35c6.56-5.26,14.48-7.9,23.77-7.9s17.12,2.63,23.53,7.9c6.4,5.27,9.6,11.71,9.6,19.35s-3.2,14.15-9.6,19.54c-6.41,5.4-14.25,8.09-23.53,8.09s-17.21-2.69-23.77-8.09Z"/><path class="cls-1" d="M697.09,593.61v-7.89c10.88-2.1,18.32-5.66,22.32-10.66,4-5,6-13.82,6-26.45v-107.39c0-12.63-2-21.45-6-26.45-4.01-5-11.45-8.55-22.32-10.66v-7.89h76.33v152.39c0,12.63,1.99,21.46,6,26.45,4,5,11.44,8.56,22.32,10.66v7.89h-104.66ZM762.86,430.16h12.96c6.72-13.42,15.52-23.49,26.41-30.2,10.88-6.71,22.88-10.07,36.01-10.07,10.56,0,18.96,2.04,25.21,6.12,6.24,4.09,9.36,9.67,9.36,16.78,0,5.53-2,10.2-6,14.02-4,3.82-9.05,5.72-15.12,5.72-3.84,0-7.2-.65-10.08-1.97-2.88-1.31-6.56-3.42-11.04-6.32-4.49-2.89-8.09-4.94-10.8-6.12-2.72-1.19-5.84-1.78-9.36-1.78-8.64,0-16.4,4.54-23.28,13.62-6.89,9.08-11.45,22.7-13.68,40.86h-10.56v-40.67Z"/><path class="cls-1" d="M925.38,589.27c-14.57-7.11-26.33-17.89-35.29-32.37-8.96-14.47-13.44-32.24-13.44-53.3,0-23.95,4.56-44.48,13.68-61.59,9.12-17.11,21.76-30.07,37.93-38.89,16.16-8.81,34.81-13.23,55.93-13.23,16.64,0,30.88,1.78,42.73,5.33,11.84,3.55,20.8,8.23,26.89,14.02,6.08,5.79,9.12,11.98,9.12,18.55,0,5.79-2,10.53-6,14.21-4.01,3.69-9.2,5.53-15.6,5.53-6.72,0-11.6-1.51-14.64-4.54-3.04-3.02-6.17-7.96-9.36-14.8-2.24-5.53-4.56-10.07-6.96-13.62-2.4-3.55-6.08-6.51-11.04-8.88-4.97-2.37-11.6-3.56-19.92-3.56-35.21,0-52.81,29.48-52.81,88.44,0,25.01,5.76,45.4,17.28,61.19,11.52,15.79,27.52,23.69,48.01,23.69,14.4,0,27.2-3.88,38.41-11.65,11.2-7.76,19.69-20.33,25.44-37.7l10.56,1.97c-4.8,22.11-14.88,39.62-30.25,52.51-15.36,12.9-36.17,19.34-62.41,19.34-17.61,0-33.69-3.55-48.25-10.66Z"/><path class="cls-1" d="M1102.53,587.49c-11.69-8.29-17.52-19.28-17.52-32.97,0-16.58,8.56-31.32,25.69-44.22,17.12-12.89,37.6-22.96,61.45-30.2,23.84-7.24,44.72-10.86,62.65-10.86l.48,14.61c-15.05,0-30.49,2.57-46.33,7.7-15.84,5.13-29.05,12.63-39.61,22.51-10.56,9.87-15.84,21.26-15.84,34.15,0,9.74,3.04,17.57,9.12,23.49,6.08,5.92,13.76,8.88,23.04,8.88,11.52,0,21.76-4.21,30.73-12.64,8.96-8.42,16.08-19.01,21.36-31.78,5.28-12.76,8.08-25.46,8.4-38.1h7.68v50.14h-7.2c-2.88,8.16-8,16.19-15.36,24.08-7.37,7.9-16.65,14.48-27.85,19.74-11.21,5.26-23.69,7.9-37.45,7.9-17.28,0-31.77-4.14-43.45-12.44ZM1229.03,565.97v-20.92l-2.88-20.53v-76.99c0-28.16-12.32-42.24-36.97-42.24-10.25,0-17.93,2.04-23.04,6.12-5.12,4.08-10.25,10.07-15.36,17.96-4.16,6.32-7.84,10.92-11.04,13.82-3.2,2.9-7.85,4.34-13.92,4.34-6.72,0-12-1.91-15.84-5.72-3.84-3.81-5.76-8.49-5.76-14.02,0-7.11,3.52-13.55,10.56-19.34,7.04-5.79,16.72-10.33,29.05-13.62,12.32-3.29,26.32-4.94,42.01-4.94,28.81,0,50.73,4.81,65.77,14.41,15.04,9.61,22.57,24.02,22.57,43.23v106.59c0,10.8,3.36,16.19,10.08,16.19,3.84,0,7.12-1.58,9.84-4.74,2.72-3.16,4.08-7.5,4.08-13.03h3.36c0,14.21-3.6,25.66-10.8,34.35-7.2,8.68-17.52,13.03-30.97,13.03-20.49,0-30.73-11.31-30.73-33.95Z"/><path class="cls-1" d="M1354.81,593.81c-13.77-4.08-25.93-9.67-36.49-16.78l9.6-50.93h10.08c13.44,40.8,36.64,61.19,69.61,61.19,13.12,0,23.6-2.83,31.45-8.49,7.84-5.66,11.76-13.23,11.76-22.7,0-7.11-2.33-13.23-6.96-18.36-4.64-5.13-10.41-9.41-17.29-12.83-6.89-3.42-16.56-7.63-29.05-12.63-14.72-5.53-26.73-10.79-36.01-15.79-9.29-5-17.21-11.58-23.77-19.74-6.56-8.15-9.84-18.29-9.84-30.4,0-17.63,6.64-31.45,19.92-41.45,13.28-10,31.93-15,55.93-15,14.08,0,27.92,1.32,41.53,3.95,13.6,2.63,24.56,6.19,32.89,10.66l-8.64,45.8h-10.08c-7.04-16.58-15.53-28.88-25.44-36.91-9.92-8.03-21.77-12.04-35.53-12.04-12.17,0-21.37,2.37-27.61,7.11-6.24,4.74-9.36,10.66-9.36,17.77,0,8.68,4,15.66,12,20.92,8,5.27,20.48,11.45,37.45,18.56,15.68,6.32,28.4,12.11,38.17,17.37,9.76,5.27,18.16,12.44,25.2,21.52,7.04,9.08,10.56,20.2,10.56,33.36,0,20.53-8,35.99-24,46.39-16.01,10.39-36.33,15.59-60.97,15.59-16.32,0-31.37-2.04-45.13-6.12Z"/><path class="cls-1" d="M1552.13,588.28c-15.36-7.76-27.37-19.08-36.01-33.95-8.64-14.87-12.96-32.44-12.96-52.71,0-24.21,4.64-44.74,13.92-61.59,9.28-16.84,21.68-29.41,37.21-37.7,15.52-8.29,32.41-12.44,50.65-12.44,30.73,0,54.17,8.43,70.33,25.27,16.16,16.85,23.12,40.53,20.88,71.06h-158.43v-13.82h124.34l-12,7.9c1.6-19.74.96-35.34-1.92-46.79-2.88-11.45-7.85-19.6-14.88-24.48-7.04-4.87-16.49-7.31-28.33-7.31-15.36,0-27.85,6.65-37.45,19.94-9.6,13.3-14.4,33.23-14.4,59.81,0,30.01,5.92,52.51,17.76,67.51,11.84,15,29.29,22.51,52.33,22.51,34.24,0,56.65-16.71,67.21-50.14l9.6,1.58c-6.72,26.06-17.93,45.4-33.61,58.04-15.69,12.63-36.17,18.95-61.45,18.95-19.85,0-37.45-3.89-52.81-11.65Z"/></g></g><g id="primary_vertical"><g id="logo"><rect id="mask" class="cls-5" x="-1578.14" y="-1325" width="1400" height="1050" transform="translate(-1678.14 78.14) rotate(90)"/><g class="cls-6"><g id="extended_base"><polygon class="cls-3" points="110.86 157 -1937.12 143 -1937.14 -417.22 110.86 -843.18 110.86 157"/></g></g></g></g></g></g></svg>