<?xml version="1.0" encoding="UTF-8"?><svg xmlns="http://www.w3.org/2000/svg" xmlns:xlink="http://www.w3.org/1999/xlink" viewBox="0 0 1303.14 461"><defs><style>.cls-1{fill:#6952a1;}.cls-1,.cls-2,.cls-3,.cls-4,.cls-5,.cls-6,.cls-7,.cls-8,.cls-9,.cls-10,.cls-11,.cls-12,.cls-13{stroke-width:0px;}.cls-2{fill:url(#linear-gradient);}.cls-3{fill:#eccea8;}.cls-4{fill:#989fc9;}.cls-14{clip-path:url(#clippath-2);}.cls-15{isolation:isolate;}.cls-16{clip-path:url(#clippath-6);}.cls-5{fill:#a4abd5;}.cls-6{fill:none;}.cls-17{clip-path:url(#clippath-7);}.cls-18{clip-path:url(#clippath-1);}.cls-19{clip-path:url(#clippath-4);}.cls-7{fill:url(#linear-gradient-2);}.cls-8{fill:url(#linear-gradient-3);}.cls-20{clip-path:url(#clippath);}.cls-9{fill:#654ea3;}.cls-21{mix-blend-mode:luminosity;}.cls-22{clip-path:url(#clippath-3);}.cls-10{fill:#a09cc5;}.cls-11{fill:#c5a2cc;}.cls-12{fill:#fff;}.cls-23{clip-path:url(#clippath-5);}.cls-13{fill:url(#linear-gradient-4);}</style><clipPath id="clippath"><rect class="cls-6" x="0" width="345.75" height="461"/></clipPath><clipPath id="clippath-1"><rect class="cls-6" x="-178.78" y="-45.97" width="676" height="507"/></clipPath><clipPath id="clippath-2"><polygon class="cls-6" points="169.54 265.11 107.34 265.39 49.83 275.69 49.83 261.42 169.65 252.72 169.54 265.11"/></clipPath><linearGradient id="linear-gradient" x1="168.3" y1="1093.85" x2="168.63" y2="1093.85" gradientTransform="translate(23041.6 3797.06) rotate(-90) scale(20.96 -20.96)" gradientUnits="userSpaceOnUse"><stop offset="0" stop-color="#654ea3"/><stop offset=".1" stop-color="#654ea3"/><stop offset="1" stop-color="#60449a"/></linearGradient><clipPath id="clippath-3"><polygon class="cls-6" points="241.75 339.5 171.57 342.83 111.43 366.6 111.43 348.13 241.75 323.65 241.75 339.5"/></clipPath><linearGradient id="linear-gradient-2" x1="172.77" y1="1084.42" x2="173.1" y2="1084.42" gradientTransform="translate(32109.79 5436.73) rotate(-90) scale(29.45 -29.45)" gradientUnits="userSpaceOnUse"><stop offset="0" stop-color="#654ea3"/><stop offset=".79" stop-color="#61469c"/><stop offset="1" stop-color="#60449a"/></linearGradient><clipPath id="clippath-4"><polygon class="cls-6" points="336.29 319.83 282.53 321.88 241.75 339.5 241.75 323.65 336.78 306.55 336.29 319.83"/></clipPath><linearGradient id="linear-gradient-3" x1="172.96" y1="1087.01" x2="173.29" y2="1087.01" gradientTransform="translate(36089.83 6026.85) rotate(-90) scale(32.94 -32.94)" gradientUnits="userSpaceOnUse"><stop offset="0" stop-color="#654ea3"/><stop offset=".65" stop-color="#62499e"/><stop offset="1" stop-color="#60449a"/></linearGradient><clipPath id="clippath-5"><polygon class="cls-6" points="260.97 257.03 208.8 257.31 169.54 265.11 169.65 252.72 261.14 245.5 260.97 257.03"/></clipPath><linearGradient id="linear-gradient-4" x1="165.78" y1="1090.59" x2="166.11" y2="1090.59" gradientTransform="translate(30756.41 4904.33) rotate(-90) scale(28 -28)" gradientUnits="userSpaceOnUse"><stop offset="0" stop-color="#654ea3"/><stop offset=".63" stop-color="#634ba0"/><stop offset="1" stop-color="#60449a"/></linearGradient><clipPath id="clippath-6"><rect class="cls-6" x="1403.14" width="345.75" height="461"/></clipPath><clipPath id="clippath-7"><rect class="cls-6" x="1224.35" y="-45.97" width="676" height="507"/></clipPath></defs><g class="cls-15"><g id="logos"><g id="alternate_horizontal"><g id="alt_horizontal_white_on_trans"><g id="text" class="cls-21"><path class="cls-12" d="M421.19,280.79c-7.3-2.16-13.74-5.13-19.34-8.89l5.09-27h5.35c7.13,21.63,19.43,32.44,36.91,32.44,6.96,0,12.51-1.5,16.67-4.5,4.16-3,6.24-7.01,6.24-12.04,0-3.77-1.23-7.01-3.69-9.73-2.46-2.72-5.52-4.99-9.16-6.8-3.65-1.81-8.78-4.04-15.4-6.7-7.81-2.93-14.17-5.72-19.09-8.37-4.92-2.65-9.12-6.14-12.6-10.46-3.48-4.32-5.22-9.7-5.22-16.12,0-9.35,3.52-16.67,10.56-21.98,7.04-5.3,16.93-7.95,29.65-7.95,7.46,0,14.8.7,22.02,2.09,7.21,1.4,13.02,3.28,17.44,5.65l-4.58,24.28h-5.34c-3.73-8.79-8.23-15.31-13.49-19.57-5.26-4.25-11.54-6.38-18.84-6.38-6.45,0-11.33,1.26-14.64,3.77s-4.96,5.65-4.96,9.42c0,4.61,2.12,8.3,6.36,11.09,4.24,2.79,10.86,6.07,19.85,9.84,8.31,3.35,15.06,6.42,20.24,9.21,5.17,2.79,9.63,6.59,13.36,11.41,3.73,4.81,5.6,10.71,5.6,17.69,0,10.88-4.24,19.08-12.73,24.59-8.49,5.51-19.26,8.27-32.33,8.27-8.65,0-16.63-1.08-23.93-3.25Z"/><path class="cls-12" d="M526.69,277.45c-8.23-4.4-14.76-10.78-19.6-19.15-4.84-8.37-7.25-18.21-7.25-29.51,0-11.86,2.42-22.01,7.25-30.46,4.84-8.44,11.37-14.83,19.6-19.15,8.23-4.32,17.26-6.49,27.11-6.49s18.88,2.17,27.11,6.49c8.23,4.33,14.76,10.71,19.6,19.15,4.84,8.44,7.25,18.6,7.25,30.46s-2.42,21.14-7.25,29.51c-4.84,8.37-11.37,14.76-19.6,19.15-8.23,4.39-17.27,6.59-27.11,6.59s-18.88-2.2-27.11-6.59ZM573.78,267.5c4.84-6.83,7.25-19.81,7.25-38.93,0-12.56-1.23-22.5-3.69-29.83-2.46-7.33-5.69-12.45-9.67-15.38-3.99-2.93-8.61-4.39-13.87-4.39s-9.89,1.46-13.87,4.39c-3.99,2.93-7.21,8.06-9.67,15.38-2.46,7.33-3.69,17.27-3.69,29.83,0,19.12,2.42,32.1,7.25,38.93,4.84,6.84,11.49,10.26,19.98,10.26s15.14-3.42,19.98-10.26Z"/><path class="cls-12" d="M639.32,275.77c-5.77-5.51-8.65-15.03-8.65-28.57v-63.63h-17.82v-7.54c8.48-1.12,15.95-4.67,22.4-10.67,6.45-6,11.62-13.61,15.53-22.82h5.34v108.84c0,12.7,5.77,19.05,17.31,19.05,4.24,0,7.8-1.12,10.69-3.35,2.88-2.23,4.33-4.95,4.33-8.16h2.54c0,7.68-2.46,13.78-7.38,18.32-4.92,4.53-11.54,6.8-19.85,6.8-10.52,0-18.67-2.76-24.43-8.27ZM639.58,176.03h49.38v7.33h-49.38v-7.33Z"/><path class="cls-12" d="M709.19,277.45c-6.2-4.4-9.29-10.22-9.29-17.48,0-8.79,4.54-16.6,13.62-23.44,9.08-6.83,19.94-12.17,32.58-16.01,12.64-3.84,23.71-5.76,33.22-5.76l.25,7.75c-7.98,0-16.16,1.36-24.56,4.08-8.4,2.72-15.4,6.7-21,11.93-5.6,5.23-8.4,11.27-8.4,18.11,0,5.17,1.61,9.31,4.84,12.46,3.22,3.14,7.29,4.71,12.22,4.71,6.11,0,11.54-2.23,16.29-6.7,4.75-4.46,8.53-10.08,11.33-16.85,2.8-6.77,4.28-13.5,4.45-20.2h4.07v26.58h-3.82c-1.53,4.33-4.24,8.58-8.15,12.77-3.91,4.19-8.83,7.68-14.76,10.46-5.94,2.79-12.56,4.19-19.85,4.19-9.16,0-16.84-2.2-23.04-6.59ZM776.26,266.04v-11.09l-1.53-10.88v-40.82c0-14.93-6.53-22.4-19.6-22.4-5.43,0-9.51,1.08-12.22,3.24-2.72,2.17-5.43,5.34-8.15,9.52-2.21,3.35-4.16,5.79-5.85,7.33-1.7,1.54-4.16,2.3-7.38,2.3-3.56,0-6.36-1.01-8.4-3.04-2.04-2.02-3.05-4.5-3.05-7.43,0-3.77,1.87-7.19,5.6-10.26,3.73-3.07,8.87-5.47,15.4-7.22,6.53-1.74,13.96-2.62,22.27-2.62,15.27,0,26.89,2.55,34.87,7.64,7.97,5.1,11.96,12.74,11.96,22.92v56.52c0,5.72,1.78,8.58,5.35,8.58,2.04,0,3.77-.84,5.22-2.51,1.44-1.67,2.16-3.98,2.16-6.91h1.78c0,7.54-1.91,13.61-5.73,18.21-3.82,4.6-9.29,6.91-16.42,6.91-10.86,0-16.29-6-16.29-18Z"/><path class="cls-12" d="M421.19,457.32c-7.3-2.16-13.74-5.13-19.34-8.9l5.09-27h5.35c7.13,21.63,19.43,32.44,36.91,32.44,6.96,0,12.51-1.5,16.67-4.5,4.16-3,6.24-7.01,6.24-12.04,0-3.77-1.23-7.01-3.69-9.73-2.46-2.72-5.52-4.99-9.16-6.8-3.65-1.81-8.78-4.05-15.4-6.7-7.81-2.93-14.17-5.72-19.09-8.37-4.92-2.65-9.12-6.14-12.6-10.47-3.48-4.32-5.22-9.7-5.22-16.12,0-9.35,3.52-16.67,10.56-21.98,7.04-5.3,16.93-7.95,29.65-7.95,7.46,0,14.8.7,22.02,2.09,7.21,1.4,13.02,3.28,17.44,5.65l-4.58,24.28h-5.34c-3.73-8.79-8.23-15.31-13.49-19.57-5.26-4.26-11.54-6.38-18.84-6.38-6.45,0-11.33,1.26-14.64,3.77-3.31,2.51-4.96,5.65-4.96,9.42,0,4.6,2.12,8.3,6.36,11.09,4.24,2.79,10.86,6.07,19.85,9.84,8.31,3.35,15.06,6.42,20.24,9.21,5.17,2.79,9.63,6.59,13.36,11.41,3.73,4.81,5.6,10.71,5.6,17.69,0,10.88-4.24,19.08-12.73,24.59-8.49,5.51-19.26,8.27-32.33,8.27-8.65,0-16.63-1.08-23.93-3.24Z"/><path class="cls-12" d="M526.31,452.3c-5.77-5.51-8.65-15.04-8.65-28.57v-63.63h-17.82v-7.54c8.48-1.12,15.95-4.67,22.4-10.68,6.45-6,11.62-13.61,15.53-22.81h5.34v108.84c0,12.7,5.77,19.05,17.31,19.05,4.24,0,7.8-1.12,10.69-3.35,2.88-2.23,4.33-4.95,4.33-8.16h2.54c0,7.68-2.46,13.78-7.38,18.31-4.92,4.53-11.54,6.8-19.85,6.8-10.52,0-18.67-2.76-24.43-8.27ZM526.57,352.56h49.38v7.33h-49.38v-7.33Z"/><path class="cls-12" d="M596.18,453.97c-6.2-4.4-9.29-10.22-9.29-17.48,0-8.79,4.54-16.6,13.62-23.44,9.08-6.83,19.94-12.17,32.58-16.01,12.64-3.84,23.71-5.76,33.22-5.76l.25,7.74c-7.98,0-16.16,1.36-24.56,4.08s-15.4,6.7-21,11.93c-5.6,5.23-8.4,11.27-8.4,18.11,0,5.16,1.61,9.31,4.84,12.45,3.22,3.14,7.29,4.71,12.22,4.71,6.11,0,11.54-2.23,16.29-6.7,4.75-4.46,8.53-10.08,11.33-16.85,2.8-6.77,4.28-13.5,4.46-20.2h4.07v26.58h-3.82c-1.53,4.33-4.24,8.58-8.14,12.77-3.91,4.19-8.83,7.68-14.76,10.47-5.94,2.79-12.56,4.19-19.85,4.19-9.16,0-16.84-2.2-23.04-6.59ZM663.25,442.57v-11.09l-1.53-10.88v-40.82c0-14.93-6.54-22.4-19.6-22.4-5.43,0-9.5,1.08-12.22,3.24-2.72,2.16-5.43,5.34-8.14,9.52-2.21,3.35-4.16,5.79-5.85,7.33-1.7,1.54-4.16,2.3-7.38,2.3-3.56,0-6.36-1.01-8.4-3.04-2.04-2.02-3.05-4.5-3.05-7.43,0-3.77,1.87-7.18,5.6-10.26,3.73-3.07,8.87-5.47,15.4-7.22,6.53-1.74,13.96-2.62,22.27-2.62,15.27,0,26.89,2.55,34.87,7.64,7.97,5.1,11.96,12.73,11.96,22.92v56.51c0,5.72,1.78,8.58,5.34,8.58,2.04,0,3.77-.84,5.22-2.51,1.44-1.67,2.16-3.98,2.16-6.91h1.78c0,7.54-1.91,13.61-5.73,18.21-3.82,4.6-9.29,6.91-16.42,6.91-10.86,0-16.29-6-16.29-18Z"/><path class="cls-12" d="M707.28,457.22v-4.19c5.77-1.12,9.71-3,11.84-5.65,2.12-2.65,3.18-7.33,3.18-14.02v-56.93c0-6.7-1.06-11.37-3.18-14.02-2.12-2.65-6.07-4.53-11.84-5.65v-4.19h40.47v80.79c0,6.7,1.06,11.38,3.18,14.02,2.12,2.65,6.07,4.54,11.84,5.65v4.19h-55.49ZM721.41,335.5c-3.48-2.86-5.22-6.31-5.22-10.36s1.74-7.46,5.22-10.26c3.48-2.79,7.68-4.19,12.6-4.19s9.08,1.4,12.47,4.19c3.39,2.79,5.09,6.21,5.09,10.26s-1.7,7.5-5.09,10.36c-3.4,2.86-7.55,4.29-12.47,4.29s-9.12-1.43-12.6-4.29Z"/><path class="cls-12" d="M771.42,457.22v-4.19c5.77-1.12,9.71-3,11.84-5.65,2.12-2.65,3.18-7.33,3.18-14.02v-56.93c0-6.7-1.06-11.37-3.18-14.02-2.12-2.65-6.07-4.53-11.84-5.65v-4.19h40.47v80.79c0,6.7,1.06,11.38,3.18,14.02,2.12,2.65,6.07,4.54,11.84,5.65v4.19h-55.49ZM806.29,370.56h6.87c3.56-7.12,8.23-12.45,14-16.01,5.77-3.56,12.13-5.34,19.09-5.34,5.6,0,10.05,1.08,13.36,3.24,3.31,2.17,4.96,5.13,4.96,8.9,0,2.93-1.06,5.41-3.18,7.43-2.12,2.02-4.8,3.03-8.02,3.03-2.04,0-3.82-.35-5.35-1.05-1.53-.7-3.48-1.81-5.85-3.35-2.38-1.53-4.29-2.62-5.73-3.24-1.44-.63-3.1-.94-4.96-.94-4.58,0-8.7,2.41-12.34,7.22-3.65,4.81-6.07,12.04-7.25,21.66h-5.6v-21.56Z"/><path class="cls-12" d="M892.45,454.92c-7.72-3.77-13.96-9.49-18.71-17.16-4.75-7.67-7.13-17.09-7.13-28.26,0-12.7,2.42-23.58,7.25-32.65,4.84-9.07,11.54-15.94,20.11-20.62,8.57-4.67,18.45-7.01,29.65-7.01,8.82,0,16.37.94,22.65,2.83,6.28,1.88,11.03,4.36,14.25,7.43,3.22,3.07,4.84,6.35,4.84,9.84,0,3.07-1.06,5.58-3.18,7.54-2.12,1.96-4.88,2.93-8.27,2.93-3.56,0-6.15-.8-7.76-2.41-1.61-1.6-3.27-4.22-4.96-7.85-1.19-2.93-2.42-5.34-3.69-7.22-1.27-1.88-3.23-3.45-5.85-4.71-2.63-1.26-6.15-1.88-10.56-1.88-18.67,0-28,15.63-28,46.89,0,13.26,3.05,24.07,9.16,32.44,6.11,8.37,14.59,12.56,25.45,12.56,7.64,0,14.42-2.06,20.36-6.17,5.94-4.11,10.44-10.78,13.49-19.99l5.6,1.05c-2.54,11.72-7.89,21-16.04,27.84-8.15,6.84-19.18,10.26-33.09,10.26-9.33,0-17.86-1.88-25.58-5.65Z"/><path class="cls-12" d="M986.38,453.97c-6.2-4.4-9.29-10.22-9.29-17.48,0-8.79,4.54-16.6,13.62-23.44,9.08-6.83,19.94-12.17,32.58-16.01,12.64-3.84,23.71-5.76,33.22-5.76l.25,7.74c-7.98,0-16.16,1.36-24.56,4.08-8.4,2.72-15.4,6.7-21,11.93-5.6,5.23-8.4,11.27-8.4,18.11,0,5.16,1.61,9.31,4.84,12.45,3.22,3.14,7.29,4.71,12.22,4.71,6.11,0,11.54-2.23,16.29-6.7,4.75-4.46,8.53-10.08,11.33-16.85,2.8-6.77,4.28-13.5,4.45-20.2h4.07v26.58h-3.82c-1.53,4.33-4.24,8.58-8.15,12.77-3.91,4.19-8.83,7.68-14.76,10.47-5.94,2.79-12.56,4.19-19.85,4.19-9.16,0-16.84-2.2-23.04-6.59ZM1053.44,442.57v-11.09l-1.53-10.88v-40.82c0-14.93-6.53-22.4-19.6-22.4-5.43,0-9.51,1.08-12.22,3.24-2.72,2.16-5.43,5.34-8.15,9.52-2.21,3.35-4.16,5.79-5.85,7.33-1.7,1.54-4.16,2.3-7.38,2.3-3.56,0-6.36-1.01-8.4-3.04-2.04-2.02-3.05-4.5-3.05-7.43,0-3.77,1.87-7.18,5.6-10.26,3.73-3.07,8.87-5.47,15.4-7.22,6.53-1.74,13.96-2.62,22.27-2.62,15.27,0,26.89,2.55,34.87,7.64,7.97,5.1,11.96,12.73,11.96,22.92v56.51c0,5.72,1.78,8.58,5.34,8.58,2.04,0,3.77-.84,5.22-2.51,1.44-1.67,2.16-3.98,2.16-6.91h1.78c0,7.54-1.91,13.61-5.73,18.21s-9.29,6.91-16.42,6.91c-10.86,0-16.29-6-16.29-18Z"/><path class="cls-12" d="M1120.13,457.32c-7.3-2.16-13.75-5.13-19.34-8.9l5.09-27h5.35c7.13,21.63,19.43,32.44,36.91,32.44,6.96,0,12.51-1.5,16.67-4.5,4.16-3,6.24-7.01,6.24-12.04,0-3.77-1.23-7.01-3.69-9.73-2.46-2.72-5.52-4.99-9.16-6.8-3.65-1.81-8.78-4.05-15.4-6.7-7.81-2.93-14.17-5.72-19.09-8.37-4.92-2.65-9.12-6.14-12.6-10.47-3.48-4.32-5.22-9.7-5.22-16.12,0-9.35,3.52-16.67,10.56-21.98,7.04-5.3,16.93-7.95,29.65-7.95,7.46,0,14.8.7,22.02,2.09,7.21,1.4,13.02,3.28,17.44,5.65l-4.58,24.28h-5.35c-3.73-8.79-8.23-15.31-13.49-19.57-5.26-4.26-11.54-6.38-18.83-6.38-6.45,0-11.33,1.26-14.64,3.77-3.31,2.51-4.96,5.65-4.96,9.42,0,4.6,2.12,8.3,6.36,11.09,4.24,2.79,10.86,6.07,19.85,9.84,8.31,3.35,15.06,6.42,20.24,9.21,5.17,2.79,9.63,6.59,13.36,11.41,3.73,4.81,5.6,10.71,5.6,17.69,0,10.88-4.24,19.08-12.73,24.59-8.49,5.51-19.26,8.27-32.33,8.27-8.65,0-16.63-1.08-23.93-3.24Z"/><path class="cls-12" d="M1224.74,454.39c-8.15-4.11-14.51-10.12-19.09-18-4.58-7.88-6.87-17.2-6.87-27.94,0-12.84,2.46-23.72,7.38-32.65,4.92-8.93,11.49-15.59,19.73-19.99,8.23-4.4,17.18-6.59,26.85-6.59,16.29,0,28.72,4.47,37.29,13.4,8.57,8.93,12.26,21.49,11.07,37.68h-84v-7.33h65.92l-6.36,4.19c.85-10.47.51-18.73-1.02-24.8-1.53-6.07-4.16-10.39-7.89-12.98-3.73-2.58-8.74-3.87-15.02-3.87-8.15,0-14.76,3.53-19.85,10.57-5.09,7.05-7.64,17.62-7.64,31.71,0,15.91,3.14,27.84,9.42,35.79,6.28,7.95,15.53,11.93,27.74,11.93,18.16,0,30.04-8.86,35.63-26.58l5.09.84c-3.56,13.81-9.5,24.07-17.82,30.77-8.32,6.7-19.18,10.05-32.58,10.05-10.52,0-19.85-2.06-28-6.17Z"/></g><g id="logo"><g class="cls-20"><g class="cls-18"><rect class="cls-3" x="-178.78" y="-45.97" width="676" height="507"/><polygon class="cls-9" points="-178.78 402.18 -178.78 426.96 494.46 286.94 495.03 276.69 -178.78 402.18"/><polygon class="cls-9" points="-178.78 365.63 -178.78 387.33 469.6 274.52 470.02 266 -178.78 365.63"/><polygon class="cls-9" points="-178.78 333.44 -178.78 354.46 445.06 264.6 445.07 255.73 -178.78 333.44"/><polygon class="cls-9" points="-178.78 302.83 -178.78 323.64 421.38 255.69 421.71 246.04 -178.78 302.83"/><polygon class="cls-9" points="-178.78 277.68 -178.78 295.9 398.05 244.92 398.46 236.64 -178.78 277.68"/><polygon class="cls-9" points="-178.78 255.65 -178.78 272.53 375.12 235.38 375.42 226.61 -178.78 255.65"/><polygon class="cls-9" points="-178.78 235.6 -178.78 251.4 353.39 225.97 353.6 216.94 -178.78 235.6"/><polygon class="cls-9" points="-178.78 216.97 -178.78 233.01 332.22 216.49 332.46 207.26 -178.78 216.97"/><polygon class="cls-9" points="-178.78 198.22 -178.78 214.39 310.92 207.03 311.05 198.04 -178.78 198.22"/><polygon class="cls-9" points="-178.78 198.22 291.13 198.05 291.24 188.74 -178.78 182.45 -178.78 198.22"/><polygon class="cls-5" points="-178.78 387.33 -178.78 402.18 495.03 276.69 469.6 274.52 -178.78 387.33"/><polygon class="cls-5" points="-178.78 354.46 -178.78 365.63 470.02 266 445.07 264.6 -178.78 354.46"/><polygon class="cls-5" points="-178.78 323.64 -178.78 333.44 445.07 255.73 421.38 255.69 -178.78 323.64"/><polygon class="cls-5" points="-178.78 295.9 -178.78 302.83 421.71 246.04 398.05 244.92 -178.78 295.9"/><polygon class="cls-5" points="-178.78 272.53 -178.78 277.68 398.46 236.64 375.12 235.38 -178.78 272.53"/><polygon class="cls-5" points="-178.78 251.4 -178.78 255.65 375.42 226.61 353.39 225.97 -178.78 251.4"/><polygon class="cls-5" points="-178.78 233.01 -178.78 235.6 353.6 216.94 332.22 216.49 -178.78 233.01"/><polygon class="cls-5" points="-178.78 426.96 -178.78 461.03 497.22 461.03 497.22 286.36 -178.78 426.96"/><polygon class="cls-5" points="-178.78 214.39 -178.78 216.97 332.46 207.26 310.91 207.03 -178.78 214.39"/><g class="cls-14"><rect class="cls-2" x="49.04" y="247.38" width="121.4" height="33.65" transform="translate(-23.31 10.94) rotate(-5.16)"/></g><g class="cls-22"><rect class="cls-7" x="108.83" y="313.46" width="135.53" height="63.33" transform="translate(-53.15 32.86) rotate(-9.25)"/></g><g class="cls-19"><rect class="cls-8" x="239.31" y="296.64" width="99.91" height="52.77" transform="translate(-63.16 70.41) rotate(-12.52)"/></g><polygon class="cls-4" points="111.43 366.6 171.57 342.83 241.75 339.5 111.43 366.6"/><polygon class="cls-10" points="49.83 275.69 107.34 265.39 169.54 265.11 49.83 275.69"/><polygon class="cls-10" points="169.54 265.11 208.8 257.31 260.97 257.03 169.54 265.11"/><g class="cls-23"><rect class="cls-13" x="168.76" y="240.65" width="93.17" height="29.31" transform="translate(-26.1 24.53) rotate(-6.15)"/></g><polygon class="cls-4" points="241.75 339.5 282.53 321.88 336.29 319.83 241.75 339.5"/><polygon class="cls-5" points="340 267.8 111.98 295.56 49.83 275.69 260.97 257.03 340 267.8"/><polygon class="cls-5" points="263.14 211.65 49.28 216.94 -1.92 211.73 182.18 208.96 263.14 211.65"/><polygon class="cls-1" points="242.58 294.47 111.8 313.27 111.98 295.61 243.66 279.6 242.58 294.47"/><polygon class="cls-1" points="170.26 227.47 49.47 231.96 49.28 216.94 170.67 213.94 170.26 227.47"/><polygon class="cls-1" points="169.91 240.3 49.65 246.97 49.47 231.96 170.26 227.47 169.91 240.3"/><polygon class="cls-1" points="169.65 252.72 49.83 261.42 49.65 246.97 169.91 240.3 169.65 252.72"/><polygon class="cls-1" points="262.47 223.17 170.26 227.47 170.67 213.94 263.14 211.65 262.47 223.17"/><polygon class="cls-1" points="261.82 234.34 169.91 240.3 170.26 227.47 262.47 223.17 261.82 234.34"/><polygon class="cls-1" points="261.14 246.4 169.65 252.72 169.91 240.3 261.82 234.34 261.14 246.4"/><polygon class="cls-1" points="242.24 309.42 111.62 330.69 111.8 313.27 242.56 294.47 242.24 309.42"/><polygon class="cls-1" points="338.79 281.16 242.56 294.47 243.67 279.6 340 267.8 338.79 281.16"/><polygon class="cls-1" points="337.54 294.47 242.24 309.42 242.58 294.47 338.79 281.16 337.54 294.47"/><polygon class="cls-1" points="336.78 306.55 241.75 323.65 242.24 309.42 337.54 294.47 336.78 306.55"/><polygon class="cls-1" points="241.75 323.65 111.43 348.13 111.62 330.69 242.24 309.42 241.75 323.65"/><polygon class="cls-11" points="111.43 348.13 93.79 339.91 93.45 323.82 78.71 317.37 78.61 301.51 62.97 296.27 63.16 279.95 111.98 295.61 111.43 348.13"/><polygon class="cls-11" points="49.83 261.42 36.93 258.07 36.94 244.35 26.06 241.62 25.8 228.43 14.94 226.75 14.45 213.4 49.28 216.94 49.83 261.42"/><polygon class="cls-1" points="98.22 210.23 5.03 211.63 4.78 184.68 98.76 185.97 98.22 210.23"/><polygon class="cls-1" points="182.18 208.96 98.22 210.23 98.76 185.97 182.44 187.02 182.18 208.96"/><polygon class="cls-11" points="4.91 198.15 -3.98 198.16 -4.35 184.78 4.78 184.68 4.91 198.15"/></g></g></g></g><g id="alt_horizontal_dark_on_trans"><g id="logo-2"><g class="cls-16"><g class="cls-17"><rect class="cls-3" x="1224.35" y="-45.97" width="676" height="507"/><polygon class="cls-9" points="1224.36 402.18 1224.36 426.96 1897.6 286.94 1898.16 276.69 1224.36 402.18"/><polygon class="cls-9" points="1224.36 365.63 1224.36 387.33 1872.74 274.52 1873.16 266 1224.36 365.63"/><polygon class="cls-9" points="1224.36 333.44 1224.36 354.46 1848.2 264.6 1848.21 255.73 1224.36 333.44"/><polygon class="cls-9" points="1224.36 302.83 1224.35 323.64 1824.52 255.69 1824.85 246.04 1224.36 302.83"/><polygon class="cls-9" points="1224.36 277.68 1224.36 295.9 1801.18 244.92 1801.59 236.64 1224.36 277.68"/><polygon class="cls-9" points="1224.36 255.65 1224.36 272.53 1778.26 235.38 1778.56 226.61 1224.36 255.65"/><polygon class="cls-9" points="1224.36 235.6 1224.36 251.4 1756.53 225.97 1756.74 216.94 1224.36 235.6"/><polygon class="cls-9" points="1224.36 216.97 1224.36 233.01 1735.36 216.49 1735.6 207.26 1224.36 216.97"/><polygon class="cls-9" points="1224.36 198.22 1224.36 214.39 1714.06 207.03 1714.19 198.04 1224.36 198.22"/><polygon class="cls-9" points="1224.36 198.22 1694.27 198.05 1694.38 188.74 1224.36 182.45 1224.36 198.22"/><polygon class="cls-5" points="1224.36 387.33 1224.36 402.18 1898.16 276.69 1872.74 274.52 1224.36 387.33"/><polygon class="cls-5" points="1224.36 354.46 1224.36 365.63 1873.16 266 1848.21 264.6 1224.36 354.46"/><polygon class="cls-5" points="1224.35 323.64 1224.36 333.44 1848.21 255.73 1824.52 255.69 1224.35 323.64"/><polygon class="cls-5" points="1224.36 295.9 1224.36 302.83 1824.85 246.04 1801.18 244.92 1224.36 295.9"/><polygon class="cls-5" points="1224.36 272.53 1224.36 277.68 1801.59 236.64 1778.26 235.38 1224.36 272.53"/><polygon class="cls-5" points="1224.36 251.4 1224.36 255.65 1778.56 226.61 1756.53 225.97 1224.36 251.4"/><polygon class="cls-5" points="1224.36 233.01 1224.36 235.6 1756.74 216.94 1735.36 216.49 1224.36 233.01"/><polygon class="cls-5" points="1224.35 426.96 1224.36 461.03 1900.35 461.03 1900.35 286.36 1224.35 426.96"/><polygon class="cls-5" points="1224.36 214.39 1224.36 216.97 1735.6 207.26 1714.05 207.03 1224.36 214.39"/></g></g></g></g></g></g></g></svg>