<?xml version="1.0" encoding="UTF-8"?><svg xmlns="http://www.w3.org/2000/svg" xmlns:xlink="http://www.w3.org/1999/xlink" viewBox="0 0 1470 600"><defs><style>.cls-1{fill:#6952a1;}.cls-1,.cls-2,.cls-3,.cls-4,.cls-5,.cls-6,.cls-7,.cls-8,.cls-9,.cls-10,.cls-11,.cls-12,.cls-13,.cls-14{stroke-width:0px;}.cls-2{fill:url(#linear-gradient);}.cls-3{fill:#eccea8;}.cls-4{fill:#989fc9;}.cls-15{clip-path:url(#clippath-2);}.cls-5{fill:#1d2041;}.cls-16{isolation:isolate;}.cls-17{clip-path:url(#clippath-6);}.cls-6{fill:#a4abd5;}.cls-7{fill:none;}.cls-18{clip-path:url(#clippath-7);}.cls-19{clip-path:url(#clippath-1);}.cls-20{clip-path:url(#clippath-4);}.cls-8{fill:url(#linear-gradient-2);}.cls-9{fill:url(#linear-gradient-3);}.cls-10{fill:#e6e0f0;}.cls-21{clip-path:url(#clippath);}.cls-11{fill:#654ea3;}.cls-22{mix-blend-mode:luminosity;}.cls-23{clip-path:url(#clippath-3);}.cls-12{fill:#a09cc5;}.cls-13{fill:#c5a2cc;}.cls-24{clip-path:url(#clippath-5);}.cls-14{fill:url(#linear-gradient-4);}</style><clipPath id="clippath"><rect class="cls-7" x="67.43" y="72.5" width="345.75" height="461"/></clipPath><clipPath id="clippath-1"><rect class="cls-7" x="-111.35" y="26.53" width="676" height="507"/></clipPath><clipPath id="clippath-2"><polygon class="cls-7" points="236.97 337.61 174.77 337.89 117.26 348.19 117.26 333.92 237.08 325.22 236.97 337.61"/></clipPath><linearGradient id="linear-gradient" x1="-5543.86" y1="-2060.12" x2="-5543.53" y2="-2060.12" gradientTransform="translate(-43011.73 -115881.8) rotate(-90) scale(20.96 -20.96)" gradientUnits="userSpaceOnUse"><stop offset="0" stop-color="#654ea3"/><stop offset=".1" stop-color="#654ea3"/><stop offset="1" stop-color="#60449a"/></linearGradient><clipPath id="clippath-3"><polygon class="cls-7" points="309.18 412 239 415.33 178.86 439.1 178.86 420.63 309.18 396.15 309.18 412"/></clipPath><linearGradient id="linear-gradient-2" x1="-5504.35" y1="-1987.54" x2="-5504.02" y2="-1987.54" gradientTransform="translate(-58283.39 -161665.99) rotate(-90) scale(29.45 -29.45)" gradientUnits="userSpaceOnUse"><stop offset="0" stop-color="#654ea3"/><stop offset=".79" stop-color="#61469c"/><stop offset="1" stop-color="#60449a"/></linearGradient><clipPath id="clippath-4"><polygon class="cls-7" points="403.72 392.33 349.96 394.38 309.18 412 309.18 396.15 404.21 379.05 403.72 392.33"/></clipPath><linearGradient id="linear-gradient-3" x1="-5498.97" y1="-1959.83" x2="-5498.64" y2="-1959.83" gradientTransform="translate(-64190.43 -180705.67) rotate(-90) scale(32.94 -32.94)" gradientUnits="userSpaceOnUse"><stop offset="0" stop-color="#654ea3"/><stop offset=".65" stop-color="#62499e"/><stop offset="1" stop-color="#60449a"/></linearGradient><clipPath id="clippath-5"><polygon class="cls-7" points="328.4 329.53 276.23 329.81 236.97 337.61 237.08 325.22 328.57 318 328.4 329.53"/></clipPath><linearGradient id="linear-gradient-4" x1="-5508.08" y1="-1997.38" x2="-5507.75" y2="-1997.38" gradientTransform="translate(-55652.13 -153915.57) rotate(-90) scale(28 -28)" gradientUnits="userSpaceOnUse"><stop offset="0" stop-color="#654ea3"/><stop offset=".63" stop-color="#634ba0"/><stop offset="1" stop-color="#60449a"/></linearGradient><clipPath id="clippath-6"><rect id="mask" class="cls-7" x="-3258" y="700" width="2048" height="2048"/></clipPath><clipPath id="clippath-7"><rect class="cls-7" x="-4072" y="-38" width="4119.33" height="3089.5"/></clipPath></defs><g class="cls-16"><g id="logos"><g id="alternate_horizontal"><g id="alt_horizontal_bordered_light"><rect id="border" class="cls-5" width="1470" height="600"/><g id="text" class="cls-22"><path class="cls-10" d="M488.62,353.29c-7.3-2.16-13.74-5.13-19.34-8.89l5.09-27h5.35c7.13,21.63,19.43,32.44,36.91,32.44,6.96,0,12.51-1.5,16.67-4.5,4.16-3,6.24-7.01,6.24-12.04,0-3.77-1.23-7.01-3.69-9.73-2.46-2.72-5.52-4.99-9.16-6.8-3.65-1.81-8.78-4.04-15.4-6.7-7.81-2.93-14.17-5.72-19.09-8.37-4.92-2.65-9.12-6.14-12.6-10.46-3.48-4.32-5.22-9.7-5.22-16.12,0-9.35,3.52-16.67,10.56-21.98,7.04-5.3,16.93-7.95,29.65-7.95,7.46,0,14.8.7,22.02,2.09,7.21,1.4,13.02,3.28,17.44,5.65l-4.58,24.28h-5.34c-3.73-8.79-8.23-15.31-13.49-19.57-5.26-4.25-11.54-6.38-18.84-6.38-6.45,0-11.33,1.26-14.64,3.77s-4.96,5.65-4.96,9.42c0,4.61,2.12,8.3,6.36,11.09,4.24,2.79,10.86,6.07,19.85,9.84,8.31,3.35,15.06,6.42,20.24,9.21,5.17,2.79,9.63,6.59,13.36,11.41,3.73,4.81,5.6,10.71,5.6,17.69,0,10.88-4.24,19.08-12.73,24.59-8.49,5.51-19.26,8.27-32.33,8.27-8.65,0-16.63-1.08-23.93-3.25Z"/><path class="cls-10" d="M594.12,349.95c-8.23-4.4-14.76-10.78-19.6-19.15-4.84-8.37-7.25-18.21-7.25-29.51,0-11.86,2.42-22.01,7.25-30.46,4.84-8.44,11.37-14.83,19.6-19.15,8.23-4.32,17.26-6.49,27.11-6.49s18.88,2.17,27.11,6.49c8.23,4.33,14.76,10.71,19.6,19.15,4.84,8.44,7.25,18.6,7.25,30.46s-2.42,21.14-7.25,29.51c-4.84,8.37-11.37,14.76-19.6,19.15-8.23,4.39-17.27,6.59-27.11,6.59s-18.88-2.2-27.11-6.59ZM641.21,340c4.84-6.83,7.25-19.81,7.25-38.93,0-12.56-1.23-22.5-3.69-29.83-2.46-7.33-5.69-12.45-9.67-15.38-3.99-2.93-8.61-4.39-13.87-4.39s-9.89,1.46-13.87,4.39c-3.99,2.93-7.21,8.06-9.67,15.38-2.46,7.33-3.69,17.27-3.69,29.83,0,19.12,2.42,32.1,7.25,38.93,4.84,6.84,11.49,10.26,19.98,10.26s15.14-3.42,19.98-10.26Z"/><path class="cls-10" d="M706.75,348.27c-5.77-5.51-8.65-15.03-8.65-28.57v-63.63h-17.82v-7.54c8.48-1.12,15.95-4.67,22.4-10.67,6.45-6,11.62-13.61,15.53-22.82h5.34v108.84c0,12.7,5.77,19.05,17.31,19.05,4.24,0,7.8-1.12,10.69-3.35,2.88-2.23,4.33-4.95,4.33-8.16h2.54c0,7.68-2.46,13.78-7.38,18.32-4.92,4.53-11.54,6.8-19.85,6.8-10.52,0-18.67-2.76-24.43-8.27ZM707.01,248.53h49.38v7.33h-49.38v-7.33Z"/><path class="cls-10" d="M776.62,349.95c-6.2-4.4-9.29-10.22-9.29-17.48,0-8.79,4.54-16.6,13.62-23.44,9.08-6.83,19.94-12.17,32.58-16.01,12.64-3.84,23.71-5.76,33.22-5.76l.25,7.75c-7.98,0-16.16,1.36-24.56,4.08-8.4,2.72-15.4,6.7-21,11.93-5.6,5.23-8.4,11.27-8.4,18.11,0,5.17,1.61,9.31,4.84,12.46,3.22,3.14,7.29,4.71,12.22,4.71,6.11,0,11.54-2.23,16.29-6.7,4.75-4.46,8.53-10.08,11.33-16.85,2.8-6.77,4.28-13.5,4.45-20.2h4.07v26.58h-3.82c-1.53,4.33-4.24,8.58-8.15,12.77-3.91,4.19-8.83,7.68-14.76,10.46-5.94,2.79-12.56,4.19-19.85,4.19-9.16,0-16.84-2.2-23.04-6.59ZM843.69,338.54v-11.09l-1.53-10.88v-40.82c0-14.93-6.53-22.4-19.6-22.4-5.43,0-9.51,1.08-12.22,3.24-2.72,2.17-5.43,5.34-8.15,9.52-2.21,3.35-4.16,5.79-5.85,7.33-1.7,1.54-4.16,2.3-7.38,2.3-3.56,0-6.36-1.01-8.4-3.04-2.04-2.02-3.05-4.5-3.05-7.43,0-3.77,1.87-7.19,5.6-10.26,3.73-3.07,8.87-5.47,15.4-7.22,6.53-1.74,13.96-2.62,22.27-2.62,15.27,0,26.89,2.55,34.87,7.64,7.97,5.1,11.96,12.74,11.96,22.92v56.52c0,5.72,1.78,8.58,5.35,8.58,2.04,0,3.77-.84,5.22-2.51,1.44-1.67,2.16-3.98,2.16-6.91h1.78c0,7.54-1.91,13.61-5.73,18.21-3.82,4.6-9.29,6.91-16.42,6.91-10.86,0-16.29-6-16.29-18Z"/><path class="cls-10" d="M488.62,529.82c-7.3-2.16-13.74-5.13-19.34-8.9l5.09-27h5.35c7.13,21.63,19.43,32.44,36.91,32.44,6.96,0,12.51-1.5,16.67-4.5,4.16-3,6.24-7.01,6.24-12.04,0-3.77-1.23-7.01-3.69-9.73-2.46-2.72-5.52-4.99-9.16-6.8-3.65-1.81-8.78-4.05-15.4-6.7-7.81-2.93-14.17-5.72-19.09-8.37-4.92-2.65-9.12-6.14-12.6-10.47-3.48-4.32-5.22-9.7-5.22-16.12,0-9.35,3.52-16.67,10.56-21.98,7.04-5.3,16.93-7.95,29.65-7.95,7.46,0,14.8.7,22.02,2.09,7.21,1.4,13.02,3.28,17.44,5.65l-4.58,24.28h-5.34c-3.73-8.79-8.23-15.31-13.49-19.57-5.26-4.26-11.54-6.38-18.84-6.38-6.45,0-11.33,1.26-14.64,3.77s-4.96,5.65-4.96,9.42c0,4.6,2.12,8.3,6.36,11.09,4.24,2.79,10.86,6.07,19.85,9.84,8.31,3.35,15.06,6.42,20.24,9.21,5.17,2.79,9.63,6.59,13.36,11.41,3.73,4.81,5.6,10.71,5.6,17.69,0,10.88-4.24,19.08-12.73,24.59-8.49,5.51-19.26,8.27-32.33,8.27-8.65,0-16.63-1.08-23.93-3.24Z"/><path class="cls-10" d="M593.74,524.8c-5.77-5.51-8.65-15.04-8.65-28.57v-63.63h-17.82v-7.54c8.48-1.12,15.95-4.67,22.4-10.68,6.45-6,11.62-13.61,15.53-22.81h5.34v108.84c0,12.7,5.77,19.05,17.31,19.05,4.24,0,7.8-1.12,10.69-3.35,2.88-2.23,4.33-4.95,4.33-8.16h2.54c0,7.68-2.46,13.78-7.38,18.31-4.92,4.53-11.54,6.8-19.85,6.8-10.52,0-18.67-2.76-24.43-8.27ZM594,425.06h49.38v7.33h-49.38v-7.33Z"/><path class="cls-10" d="M663.61,526.47c-6.2-4.4-9.29-10.22-9.29-17.48,0-8.79,4.54-16.6,13.62-23.44,9.08-6.83,19.94-12.17,32.58-16.01,12.64-3.84,23.71-5.76,33.22-5.76l.25,7.74c-7.98,0-16.16,1.36-24.56,4.08s-15.4,6.7-21,11.93c-5.6,5.23-8.4,11.27-8.4,18.11,0,5.16,1.61,9.31,4.84,12.45,3.22,3.14,7.29,4.71,12.22,4.71,6.11,0,11.54-2.23,16.29-6.7,4.75-4.46,8.53-10.08,11.33-16.85,2.8-6.77,4.28-13.5,4.46-20.2h4.07v26.58h-3.82c-1.53,4.33-4.24,8.58-8.14,12.77-3.91,4.19-8.83,7.68-14.76,10.47-5.94,2.79-12.56,4.19-19.85,4.19-9.16,0-16.84-2.2-23.04-6.59ZM730.68,515.07v-11.09l-1.53-10.88v-40.82c0-14.93-6.54-22.4-19.6-22.4-5.43,0-9.5,1.08-12.22,3.24-2.72,2.16-5.43,5.34-8.14,9.52-2.21,3.35-4.16,5.79-5.85,7.33-1.7,1.54-4.16,2.3-7.38,2.3-3.56,0-6.36-1.01-8.4-3.04-2.04-2.02-3.05-4.5-3.05-7.43,0-3.77,1.87-7.18,5.6-10.26,3.73-3.07,8.87-5.47,15.4-7.22,6.53-1.74,13.96-2.62,22.27-2.62,15.27,0,26.89,2.55,34.87,7.64,7.97,5.1,11.96,12.73,11.96,22.92v56.51c0,5.72,1.78,8.58,5.34,8.58,2.04,0,3.77-.84,5.22-2.51,1.44-1.67,2.16-3.98,2.16-6.91h1.78c0,7.54-1.91,13.61-5.73,18.21-3.82,4.6-9.29,6.91-16.42,6.91-10.86,0-16.29-6-16.29-18Z"/><path class="cls-10" d="M774.71,529.72v-4.19c5.77-1.12,9.71-3,11.84-5.65,2.12-2.65,3.18-7.33,3.18-14.02v-56.93c0-6.7-1.06-11.37-3.18-14.02-2.12-2.65-6.07-4.53-11.84-5.65v-4.19h40.47v80.79c0,6.7,1.06,11.38,3.18,14.02,2.12,2.65,6.07,4.54,11.84,5.65v4.19h-55.49ZM788.84,408c-3.48-2.86-5.22-6.31-5.22-10.36s1.74-7.46,5.22-10.26c3.48-2.79,7.68-4.19,12.6-4.19s9.08,1.4,12.47,4.19c3.39,2.79,5.09,6.21,5.09,10.26s-1.7,7.5-5.09,10.36c-3.4,2.86-7.55,4.29-12.47,4.29s-9.12-1.43-12.6-4.29Z"/><path class="cls-10" d="M838.85,529.72v-4.19c5.77-1.12,9.71-3,11.84-5.65,2.12-2.65,3.18-7.33,3.18-14.02v-56.93c0-6.7-1.06-11.37-3.18-14.02-2.12-2.65-6.07-4.53-11.84-5.65v-4.19h40.47v80.79c0,6.7,1.06,11.38,3.18,14.02,2.12,2.65,6.07,4.54,11.84,5.65v4.19h-55.49ZM873.73,443.06h6.87c3.56-7.12,8.23-12.45,14-16.01,5.77-3.56,12.13-5.34,19.09-5.34,5.6,0,10.05,1.08,13.36,3.24,3.31,2.17,4.96,5.13,4.96,8.9,0,2.93-1.06,5.41-3.18,7.43-2.12,2.02-4.8,3.03-8.02,3.03-2.04,0-3.82-.35-5.35-1.05-1.53-.7-3.48-1.81-5.85-3.35-2.38-1.53-4.29-2.62-5.73-3.24-1.44-.63-3.1-.94-4.96-.94-4.58,0-8.7,2.41-12.34,7.22-3.65,4.81-6.07,12.04-7.25,21.66h-5.6v-21.56Z"/><path class="cls-10" d="M959.88,527.42c-7.72-3.77-13.96-9.49-18.71-17.16-4.75-7.67-7.13-17.09-7.13-28.26,0-12.7,2.42-23.58,7.25-32.65,4.84-9.07,11.54-15.94,20.11-20.62,8.57-4.67,18.45-7.01,29.65-7.01,8.82,0,16.37.94,22.65,2.83,6.28,1.88,11.03,4.36,14.25,7.43,3.22,3.07,4.84,6.35,4.84,9.84,0,3.07-1.06,5.58-3.18,7.54-2.12,1.96-4.88,2.93-8.27,2.93-3.56,0-6.15-.8-7.76-2.41-1.61-1.6-3.27-4.22-4.96-7.85-1.19-2.93-2.42-5.34-3.69-7.22-1.27-1.88-3.23-3.45-5.85-4.71-2.63-1.26-6.15-1.88-10.56-1.88-18.67,0-28,15.63-28,46.89,0,13.26,3.05,24.07,9.16,32.44,6.11,8.37,14.59,12.56,25.45,12.56,7.64,0,14.42-2.06,20.36-6.17,5.94-4.11,10.44-10.78,13.49-19.99l5.6,1.05c-2.54,11.72-7.89,21-16.04,27.84-8.15,6.84-19.18,10.26-33.09,10.26-9.33,0-17.86-1.88-25.58-5.65Z"/><path class="cls-10" d="M1053.81,526.47c-6.2-4.4-9.29-10.22-9.29-17.48,0-8.79,4.54-16.6,13.62-23.44,9.08-6.83,19.94-12.17,32.58-16.01,12.64-3.84,23.71-5.76,33.22-5.76l.25,7.74c-7.98,0-16.16,1.36-24.56,4.08-8.4,2.72-15.4,6.7-21,11.93-5.6,5.23-8.4,11.27-8.4,18.11,0,5.16,1.61,9.31,4.84,12.45,3.22,3.14,7.29,4.71,12.22,4.71,6.11,0,11.54-2.23,16.29-6.7,4.75-4.46,8.53-10.08,11.33-16.85,2.8-6.77,4.28-13.5,4.45-20.2h4.07v26.58h-3.82c-1.53,4.33-4.24,8.58-8.15,12.77-3.91,4.19-8.83,7.68-14.76,10.47-5.94,2.79-12.56,4.19-19.85,4.19-9.16,0-16.84-2.2-23.04-6.59ZM1120.88,515.07v-11.09l-1.53-10.88v-40.82c0-14.93-6.53-22.4-19.6-22.4-5.43,0-9.51,1.08-12.22,3.24-2.72,2.16-5.43,5.34-8.15,9.52-2.21,3.35-4.16,5.79-5.85,7.33-1.7,1.54-4.16,2.3-7.38,2.3-3.56,0-6.36-1.01-8.4-3.04-2.04-2.02-3.05-4.5-3.05-7.43,0-3.77,1.87-7.18,5.6-10.26,3.73-3.07,8.87-5.47,15.4-7.22,6.53-1.74,13.96-2.62,22.27-2.62,15.27,0,26.89,2.55,34.87,7.64,7.97,5.1,11.96,12.73,11.96,22.92v56.51c0,5.72,1.78,8.58,5.34,8.58,2.04,0,3.77-.84,5.22-2.51,1.44-1.67,2.16-3.98,2.16-6.91h1.78c0,7.54-1.91,13.61-5.73,18.21s-9.29,6.91-16.42,6.91c-10.86,0-16.29-6-16.29-18Z"/><path class="cls-10" d="M1187.56,529.82c-7.3-2.16-13.75-5.13-19.34-8.9l5.09-27h5.35c7.13,21.63,19.43,32.44,36.91,32.44,6.96,0,12.51-1.5,16.67-4.5,4.16-3,6.24-7.01,6.24-12.04,0-3.77-1.23-7.01-3.69-9.73-2.46-2.72-5.52-4.99-9.16-6.8-3.65-1.81-8.78-4.05-15.4-6.7-7.81-2.93-14.17-5.72-19.09-8.37-4.92-2.65-9.12-6.14-12.6-10.47-3.48-4.32-5.22-9.7-5.22-16.12,0-9.35,3.52-16.67,10.56-21.98,7.04-5.3,16.93-7.95,29.65-7.95,7.46,0,14.8.7,22.02,2.09,7.21,1.4,13.02,3.28,17.44,5.65l-4.58,24.28h-5.35c-3.73-8.79-8.23-15.31-13.49-19.57-5.26-4.26-11.54-6.38-18.83-6.38-6.45,0-11.33,1.26-14.64,3.77-3.31,2.51-4.96,5.65-4.96,9.42,0,4.6,2.12,8.3,6.36,11.09,4.24,2.79,10.86,6.07,19.85,9.84,8.31,3.35,15.06,6.42,20.24,9.21,5.17,2.79,9.63,6.59,13.36,11.41,3.73,4.81,5.6,10.71,5.6,17.69,0,10.88-4.24,19.08-12.73,24.59-8.49,5.51-19.26,8.27-32.33,8.27-8.65,0-16.63-1.08-23.93-3.24Z"/><path class="cls-10" d="M1292.17,526.89c-8.15-4.11-14.51-10.12-19.09-18-4.58-7.88-6.87-17.2-6.87-27.94,0-12.84,2.46-23.72,7.38-32.65,4.92-8.93,11.49-15.59,19.73-19.99,8.23-4.4,17.18-6.59,26.85-6.59,16.29,0,28.72,4.47,37.29,13.4,8.57,8.93,12.26,21.49,11.07,37.68h-84v-7.33h65.92l-6.36,4.19c.85-10.47.51-18.73-1.02-24.8-1.53-6.07-4.16-10.39-7.89-12.98-3.73-2.58-8.74-3.87-15.02-3.87-8.15,0-14.76,3.53-19.85,10.57-5.09,7.05-7.64,17.62-7.64,31.71,0,15.91,3.14,27.84,9.42,35.79,6.28,7.95,15.53,11.93,27.74,11.93,18.16,0,30.04-8.86,35.63-26.58l5.09.84c-3.56,13.81-9.5,24.07-17.82,30.77-8.32,6.7-19.18,10.05-32.58,10.05-10.52,0-19.85-2.06-28-6.17Z"/></g><g id="logo"><g class="cls-21"><g class="cls-19"><rect class="cls-3" x="-111.35" y="26.53" width="676" height="507"/><polygon class="cls-11" points="-111.35 474.68 -111.35 499.46 561.89 359.44 562.46 349.19 -111.35 474.68"/><polygon class="cls-11" points="-111.35 438.13 -111.35 459.83 537.04 347.02 537.45 338.5 -111.35 438.13"/><polygon class="cls-11" points="-111.35 405.94 -111.35 426.96 512.49 337.1 512.5 328.23 -111.35 405.94"/><polygon class="cls-11" points="-111.35 375.33 -111.35 396.14 488.81 328.19 489.14 318.54 -111.35 375.33"/><polygon class="cls-11" points="-111.35 350.18 -111.35 368.4 465.48 317.42 465.89 309.14 -111.35 350.18"/><polygon class="cls-11" points="-111.35 328.15 -111.35 345.03 442.55 307.88 442.85 299.11 -111.35 328.15"/><polygon class="cls-11" points="-111.35 308.1 -111.35 323.9 420.82 298.47 421.03 289.44 -111.35 308.1"/><polygon class="cls-11" points="-111.35 289.47 -111.35 305.51 399.65 288.99 399.89 279.76 -111.35 289.47"/><polygon class="cls-11" points="-111.35 270.72 -111.35 286.89 378.35 279.53 378.48 270.54 -111.35 270.72"/><polygon class="cls-11" points="-111.35 270.72 358.56 270.55 358.67 261.24 -111.35 254.95 -111.35 270.72"/><polygon class="cls-6" points="-111.35 459.83 -111.35 474.68 562.46 349.19 537.04 347.02 -111.35 459.83"/><polygon class="cls-6" points="-111.35 426.96 -111.35 438.13 537.45 338.5 512.5 337.1 -111.35 426.96"/><polygon class="cls-6" points="-111.35 396.14 -111.35 405.94 512.5 328.23 488.81 328.19 -111.35 396.14"/><polygon class="cls-6" points="-111.35 368.4 -111.35 375.33 489.14 318.54 465.48 317.42 -111.35 368.4"/><polygon class="cls-6" points="-111.35 345.03 -111.35 350.18 465.89 309.14 442.55 307.88 -111.35 345.03"/><polygon class="cls-6" points="-111.35 323.9 -111.35 328.15 442.85 299.11 420.82 298.47 -111.35 323.9"/><polygon class="cls-6" points="-111.35 305.51 -111.35 308.1 421.03 289.44 399.65 288.99 -111.35 305.51"/><polygon class="cls-6" points="-111.35 499.46 -111.35 533.53 564.65 533.53 564.65 358.86 -111.35 499.46"/><polygon class="cls-6" points="-111.35 286.89 -111.35 289.47 399.89 279.76 378.34 279.53 -111.35 286.89"/><g class="cls-15"><rect class="cls-2" x="116.47" y="319.88" width="121.4" height="33.65" transform="translate(-29.56 17.29) rotate(-5.16)"/></g><g class="cls-23"><rect class="cls-8" x="176.26" y="385.96" width="135.53" height="63.33" transform="translate(-63.93 44.63) rotate(-9.25)"/></g><g class="cls-20"><rect class="cls-9" x="306.74" y="369.14" width="99.91" height="52.77" transform="translate(-77.28 86.75) rotate(-12.52)"/></g><polygon class="cls-4" points="178.86 439.1 239 415.33 309.18 412 178.86 439.1"/><polygon class="cls-12" points="117.26 348.19 174.77 337.89 236.97 337.61 117.26 348.19"/><polygon class="cls-12" points="236.97 337.61 276.23 329.81 328.4 329.53 236.97 337.61"/><g class="cls-24"><rect class="cls-14" x="236.19" y="313.15" width="93.17" height="29.31" transform="translate(-33.47 32.16) rotate(-6.15)"/></g><polygon class="cls-4" points="309.18 412 349.96 394.38 403.72 392.33 309.18 412"/><polygon class="cls-6" points="407.44 340.3 179.41 368.06 117.26 348.19 328.4 329.53 407.44 340.3"/><polygon class="cls-6" points="330.57 284.15 116.71 289.44 65.51 284.23 249.61 281.46 330.57 284.15"/><polygon class="cls-1" points="310.01 366.97 179.23 385.77 179.41 368.11 311.1 352.1 310.01 366.97"/><polygon class="cls-1" points="237.69 299.97 116.9 304.46 116.71 289.44 238.1 286.44 237.69 299.97"/><polygon class="cls-1" points="237.35 312.8 117.08 319.47 116.9 304.46 237.69 299.97 237.35 312.8"/><polygon class="cls-1" points="237.08 325.22 117.26 333.92 117.08 319.47 237.35 312.8 237.08 325.22"/><polygon class="cls-1" points="329.9 295.67 237.69 299.97 238.1 286.44 330.57 284.15 329.9 295.67"/><polygon class="cls-1" points="329.25 306.84 237.35 312.8 237.69 299.97 329.9 295.67 329.25 306.84"/><polygon class="cls-1" points="328.57 318.9 237.08 325.22 237.35 312.8 329.25 306.84 328.57 318.9"/><polygon class="cls-1" points="309.67 381.92 179.05 403.19 179.23 385.77 309.99 366.97 309.67 381.92"/><polygon class="cls-1" points="406.22 353.66 309.99 366.97 311.1 352.1 407.44 340.3 406.22 353.66"/><polygon class="cls-1" points="404.97 366.97 309.67 381.92 310.01 366.97 406.22 353.66 404.97 366.97"/><polygon class="cls-1" points="404.21 379.05 309.18 396.15 309.67 381.92 404.97 366.97 404.21 379.05"/><polygon class="cls-1" points="309.18 396.15 178.86 420.63 179.05 403.19 309.67 381.92 309.18 396.15"/><polygon class="cls-13" points="178.86 420.63 161.22 412.41 160.88 396.32 146.15 389.87 146.04 374.01 130.4 368.77 130.59 352.45 179.41 368.11 178.86 420.63"/><polygon class="cls-13" points="117.26 333.92 104.36 330.57 104.37 316.85 93.49 314.12 93.23 300.93 82.37 299.25 81.88 285.9 116.71 289.44 117.26 333.92"/><polygon class="cls-1" points="165.65 282.73 72.46 284.13 72.21 257.18 166.19 258.47 165.65 282.73"/><polygon class="cls-1" points="249.61 281.46 165.65 282.73 166.19 258.47 249.87 259.52 249.61 281.46"/><polygon class="cls-13" points="72.34 270.65 63.45 270.66 63.08 257.28 72.21 257.18 72.34 270.65"/></g></g></g></g></g></g><g id="icon"><g class="cls-17"><g class="cls-18"><rect class="cls-3" x="-4072" y="-38" width="4119.33" height="3089.5"/></g></g></g></g></svg>