<?xml version="1.0" encoding="UTF-8"?><svg xmlns="http://www.w3.org/2000/svg" xmlns:xlink="http://www.w3.org/1999/xlink" viewBox="0 0 1536 2048"><defs><style>.cls-1{fill:#6952a1;}.cls-1,.cls-2,.cls-3,.cls-4,.cls-5,.cls-6,.cls-7,.cls-8,.cls-9,.cls-10,.cls-11,.cls-12,.cls-13,.cls-14{stroke-width:0px;}.cls-2{fill:url(#linear-gradient);}.cls-3{fill:#eccea8;}.cls-4{fill:#989fc9;}.cls-15{clip-path:url(#clippath-2);}.cls-16{clip-path:url(#clippath-6);}.cls-5{fill:#a4abd5;}.cls-6{fill:none;}.cls-7,.cls-17{fill:#7f47dd;}.cls-18{clip-path:url(#clippath-7);}.cls-19{clip-path:url(#clippath-1);}.cls-20{clip-path:url(#clippath-4);}.cls-8{fill:url(#linear-gradient-2);}.cls-9{fill:url(#linear-gradient-3);}.cls-21{clip-path:url(#clippath-9);}.cls-22{clip-path:url(#clippath);}.cls-10{fill:#654ea3;}.cls-23{clip-path:url(#clippath-3);}.cls-11{fill:#a09cc5;}.cls-12{fill:#a4abd5;}.cls-24{clip-path:url(#clippath-8);}.cls-13{fill:#c5a2cc;}.cls-25{clip-path:url(#clippath-5);}.cls-14{fill:url(#linear-gradient-4);}</style><clipPath id="clippath"><rect class="cls-6" width="1536" height="2048"/></clipPath><clipPath id="clippath-1"><rect class="cls-6" x="-794.25" y="-204.2" width="3003.14" height="2252.36"/></clipPath><clipPath id="clippath-2"><polygon class="cls-6" points="753.2 1177.77 476.88 1179 221.36 1224.77 221.36 1161.38 753.67 1122.73 753.2 1177.77"/></clipPath><linearGradient id="linear-gradient" x1="-703.97" y1="-2535.77" x2="-702.51" y2="-2535.77" gradientTransform="translate(-52673.11 -13564.13) rotate(-90) scale(20.96 -20.96)" gradientUnits="userSpaceOnUse"><stop offset="0" stop-color="#654ea3"/><stop offset=".1" stop-color="#654ea3"/><stop offset="1" stop-color="#60449a"/></linearGradient><clipPath id="clippath-3"><polygon class="cls-6" points="1073.99 1508.22 762.19 1523.02 495.05 1628.63 495.05 1546.59 1073.99 1437.8 1073.99 1508.22"/></clipPath><linearGradient id="linear-gradient-2" x1="-647.91" y1="-2531.71" x2="-646.44" y2="-2531.71" gradientTransform="translate(-73767.23 -17528.52) rotate(-90) scale(29.45 -29.45)" gradientUnits="userSpaceOnUse"><stop offset="0" stop-color="#654ea3"/><stop offset=".79" stop-color="#61469c"/><stop offset="1" stop-color="#60449a"/></linearGradient><clipPath id="clippath-4"><polygon class="cls-6" points="1493.97 1420.87 1255.16 1429.96 1073.99 1508.22 1073.99 1437.8 1496.16 1361.85 1493.97 1420.87"/></clipPath><linearGradient id="linear-gradient-3" x1="-631.21" y1="-2530.84" x2="-629.74" y2="-2530.84" gradientTransform="translate(-82068.11 -19320.53) rotate(-90) scale(32.94 -32.94)" gradientUnits="userSpaceOnUse"><stop offset="0" stop-color="#654ea3"/><stop offset=".65" stop-color="#62499e"/><stop offset="1" stop-color="#60449a"/></linearGradient><clipPath id="clippath-5"><polygon class="cls-6" points="1159.37 1141.87 927.6 1143.12 753.2 1177.77 753.67 1122.73 1160.14 1090.62 1159.37 1141.87"/></clipPath><linearGradient id="linear-gradient-4" x1="-652.21" y1="-2541.79" x2="-650.75" y2="-2541.79" gradientTransform="translate(-70224.2 -17102.19) rotate(-90) scale(28 -28)" gradientUnits="userSpaceOnUse"><stop offset="0" stop-color="#654ea3"/><stop offset=".63" stop-color="#634ba0"/><stop offset="1" stop-color="#60449a"/></linearGradient><clipPath id="clippath-6"><rect id="mask-2" class="cls-7" x="-1892" y="256" width="2048" height="1536" transform="translate(156 1892) rotate(90)"/></clipPath><clipPath id="clippath-7"><rect class="cls-6" x="-2415.7" y="-533.94" width="2995.93" height="2246.95"/></clipPath><clipPath id="clippath-8"><rect id="mask-3" class="cls-6" x="1636" width="2048" height="2048"/></clipPath><clipPath id="clippath-9"><rect class="cls-6" x="822" y="-738" width="4119.33" height="3089.5"/></clipPath></defs><g id="logos"><g id="noncombined"><g id="logo"><g class="cls-22"><g class="cls-19"><rect class="cls-3" x="-794.25" y="-204.2" width="3003.14" height="2252.36"/><polygon class="cls-10" points="-794.23 1786.71 -794.23 1896.79 2196.64 1274.72 2199.16 1229.21 -794.23 1786.71"/><polygon class="cls-10" points="-794.23 1624.31 -794.23 1720.7 2086.23 1219.58 2088.07 1181.69 -794.23 1624.31"/><polygon class="cls-10" points="-794.23 1481.31 -794.23 1574.7 1977.2 1175.5 1977.23 1136.07 -794.23 1481.31"/><polygon class="cls-10" points="-794.23 1345.35 -794.25 1437.77 1871.98 1135.9 1873.44 1093.05 -794.23 1345.35"/><polygon class="cls-10" points="-794.23 1233.61 -794.23 1314.53 1768.32 1088.05 1770.14 1051.26 -794.23 1233.61"/><polygon class="cls-10" points="-794.23 1135.75 -794.23 1210.74 1666.48 1045.69 1667.8 1006.73 -794.23 1135.75"/><polygon class="cls-10" points="-794.24 1046.67 -794.23 1116.87 1569.96 1003.87 1570.88 963.77 -794.24 1046.67"/><polygon class="cls-10" points="-794.23 963.89 -794.23 1035.14 1475.91 961.78 1476.96 920.74 -794.23 963.89"/><polygon class="cls-10" points="-794.23 880.6 -794.23 952.45 1381.27 919.71 1381.86 879.79 -794.23 880.6"/><polygon class="cls-10" points="-794.23 880.6 1293.36 879.83 1293.85 838.5 -794.23 810.53 -794.23 880.6"/><polygon class="cls-5" points="-794.23 1720.7 -794.23 1786.71 2199.16 1229.21 2086.23 1219.58 -794.23 1720.7"/><polygon class="cls-5" points="-794.23 1574.7 -794.23 1624.32 2088.07 1181.69 1977.23 1175.49 -794.23 1574.7"/><polygon class="cls-5" points="-794.25 1437.77 -794.23 1481.31 1977.23 1136.07 1871.98 1135.9 -794.25 1437.77"/><polygon class="cls-5" points="-794.23 1314.53 -794.23 1345.35 1873.44 1093.05 1768.32 1088.06 -794.23 1314.53"/><polygon class="cls-5" points="-794.23 1210.74 -794.23 1233.61 1770.14 1051.26 1666.48 1045.69 -794.23 1210.74"/><polygon class="cls-5" points="-794.23 1116.87 -794.23 1135.75 1667.8 1006.73 1569.96 1003.87 -794.23 1116.87"/><polygon class="cls-5" points="-794.23 1035.14 -794.24 1046.67 1570.88 963.76 1475.91 961.78 -794.23 1035.14"/><polygon class="cls-5" points="-794.25 1896.79 -794.23 2048.15 2208.89 2048.15 2208.89 1272.17 -794.25 1896.79"/><polygon class="cls-5" points="-794.23 952.45 -794.23 963.89 1476.96 920.74 1381.24 919.71 -794.23 952.45"/><g class="cls-15"><rect class="cls-2" x="217.85" y="1099.01" width="539.32" height="149.49" transform="translate(-103.56 48.59) rotate(-5.16)"/></g><g class="cls-23"><rect class="cls-8" x="483.48" y="1392.53" width="602.08" height="281.37" transform="translate(-236.14 145.96) rotate(-9.25)"/></g><g class="cls-20"><rect class="cls-9" x="1063.14" y="1317.83" width="443.86" height="234.42" transform="translate(-280.59 312.78) rotate(-12.52)"/></g><polygon class="cls-4" points="495.05 1628.63 762.19 1523.02 1073.99 1508.22 495.05 1628.63"/><polygon class="cls-11" points="221.36 1224.77 476.88 1179 753.2 1177.77 221.36 1224.77"/><polygon class="cls-11" points="753.2 1177.77 927.6 1143.12 1159.37 1141.87 753.2 1177.77"/><g class="cls-25"><rect class="cls-14" x="749.7" y="1069.08" width="413.93" height="130.22" transform="translate(-115.94 108.95) rotate(-6.15)"/></g><polygon class="cls-4" points="1073.99 1508.22 1255.16 1429.96 1493.97 1420.87 1073.99 1508.22"/><polygon class="cls-5" points="1510.48 1189.68 497.47 1313.01 221.36 1224.77 1159.37 1141.87 1510.48 1189.68"/><polygon class="cls-5" points="1169.02 940.25 218.95 963.77 -8.51 940.62 809.33 928.32 1169.02 940.25"/><polygon class="cls-1" points="1077.68 1308.19 496.66 1391.71 497.47 1313.25 1082.49 1242.12 1077.68 1308.19"/><polygon class="cls-1" points="756.38 1010.52 219.76 1030.49 218.95 963.77 758.2 950.42 756.38 1010.52"/><polygon class="cls-1" points="754.85 1067.53 220.58 1097.15 219.76 1030.49 756.38 1010.52 754.85 1067.53"/><polygon class="cls-1" points="753.67 1122.73 221.36 1161.38 220.58 1097.15 754.85 1067.53 753.67 1122.73"/><polygon class="cls-1" points="1166.04 991.44 756.38 1010.52 758.2 950.42 1169.02 940.25 1166.04 991.44"/><polygon class="cls-1" points="1163.12 1041.07 754.85 1067.53 756.38 1010.52 1166.04 991.44 1163.12 1041.07"/><polygon class="cls-1" points="1160.14 1094.65 753.67 1122.73 754.85 1067.53 1163.12 1041.07 1160.14 1094.65"/><polygon class="cls-1" points="1076.16 1374.58 495.85 1469.08 496.66 1391.71 1077.59 1308.2 1076.16 1374.58"/><polygon class="cls-1" points="1505.1 1249.06 1077.59 1308.2 1082.49 1242.12 1510.48 1189.68 1505.1 1249.06"/><polygon class="cls-1" points="1499.54 1308.2 1076.16 1374.58 1077.68 1308.18 1505.1 1249.06 1499.54 1308.2"/><polygon class="cls-1" points="1496.16 1361.85 1073.99 1437.8 1076.16 1374.58 1499.54 1308.2 1496.16 1361.85"/><polygon class="cls-1" points="1073.99 1437.8 495.05 1546.59 495.85 1469.08 1076.16 1374.58 1073.99 1437.8"/><polygon class="cls-13" points="495.05 1546.59 416.68 1510.04 415.13 1438.6 349.69 1409.93 349.23 1339.46 279.74 1316.17 280.59 1243.7 497.47 1313.25 495.05 1546.59"/><polygon class="cls-13" points="221.36 1161.38 164.06 1146.46 164.1 1085.53 115.76 1073.41 114.61 1014.8 66.37 1007.33 64.19 948.02 218.95 963.77 221.36 1161.38"/><polygon class="cls-1" points="436.34 933.93 22.36 940.15 21.24 820.45 438.73 826.17 436.34 933.93"/><polygon class="cls-1" points="809.33 928.32 436.33 933.93 438.73 826.17 810.5 830.83 809.33 928.32"/><polygon class="cls-13" points="21.8 880.3 -17.7 880.31 -19.31 820.91 21.24 820.45 21.8 880.3"/></g></g></g><g id="logo-2"><rect id="mask" class="cls-17" x="-1892" y="256" width="2048" height="1536" transform="translate(156 1892) rotate(90)"/><g class="cls-16"><g id="extended_base"><polygon class="cls-12" points="578.77 2423.95 -2417.15 2403.47 -2417.17 1583.95 578.77 960.83 578.77 2423.95"/></g><g class="cls-18"><rect class="cls-3" x="-2415.7" y="-533.94" width="2995.93" height="2246.95"/><polygon class="cls-10" points="-2415.68 1452.19 -2415.68 1562 568.01 941.43 570.53 896.03 -2415.68 1452.19"/><polygon class="cls-10" points="-2415.68 1290.19 -2415.68 1386.34 457.86 886.42 459.7 848.63 -2415.68 1290.19"/><polygon class="cls-10" points="-2415.68 1147.52 -2415.68 1240.69 349.1 842.44 349.13 803.11 -2415.68 1147.52"/><polygon class="cls-10" points="-2415.68 1011.89 -2415.7 1104.08 244.13 802.94 245.59 760.2 -2415.68 1011.89"/><polygon class="cls-10" points="-2415.68 900.42 -2415.68 981.14 140.72 755.21 142.54 718.51 -2415.68 900.42"/><polygon class="cls-10" points="-2415.68 802.79 -2415.68 877.6 39.12 712.95 40.44 674.08 -2415.68 802.79"/><polygon class="cls-5" points="-2415.68 1386.34 -2415.68 1452.19 570.53 896.03 457.86 886.42 -2415.68 1386.34"/><polygon class="cls-5" points="-2415.68 1240.69 -2415.68 1290.19 459.7 848.63 349.13 842.44 -2415.68 1240.69"/><polygon class="cls-5" points="-2415.7 1104.08 -2415.68 1147.52 349.13 803.11 244.13 802.94 -2415.7 1104.08"/><polygon class="cls-5" points="-2415.68 981.14 -2415.68 1011.89 245.59 760.2 140.72 755.21 -2415.68 981.14"/><polygon class="cls-5" points="-2415.68 877.6 -2415.68 900.41 142.54 718.51 39.12 712.95 -2415.68 877.6"/><polygon class="cls-5" points="-2415.68 783.96 -2415.68 802.79 40.44 674.08 -57.17 671.23 -2415.68 783.96"/><polygon class="cls-5" points="-2415.7 1562 -2415.68 1713.01 580.23 1713.01 580.23 938.89 -2415.7 1562"/></g></g></g></g></g><g id="icon"><g class="cls-24"><g class="cls-21"><rect class="cls-3" x="822" y="-738" width="4119.33" height="3089.5"/><polygon class="cls-10" points="822.03 1992.88 822.03 2143.88 4924.54 1290.61 4927.99 1228.18 822.03 1992.88"/><polygon class="cls-10" points="822.03 1770.13 822.03 1902.35 4773.08 1214.97 4775.61 1163 822.03 1770.13"/><polygon class="cls-10" points="822.03 1573.98 822.03 1702.08 4623.53 1154.5 4623.57 1100.41 822.03 1573.98"/><polygon class="cls-10" points="822.03 1387.48 822 1514.25 4479.21 1100.18 4481.21 1041.41 822.03 1387.48"/><polygon class="cls-10" points="822.03 1234.21 822.03 1345.21 4337.03 1034.56 4339.52 984.09 822.03 1234.21"/><polygon class="cls-10" points="822.03 1099.98 822.03 1202.84 4197.32 976.44 4199.13 923 822.03 1099.98"/><polygon class="cls-10" points="822.03 977.79 822.03 1074.08 4064.93 919.09 4066.2 864.07 822.03 977.79"/><polygon class="cls-10" points="822.03 864.24 822.03 961.98 3935.93 861.35 3937.37 805.05 822.03 864.24"/><polygon class="cls-10" points="822.03 750 822.03 848.55 3806.11 803.65 3806.91 748.89 822.03 750"/><polygon class="cls-10" points="822.03 750 3685.52 748.94 3686.2 692.25 822.03 653.88 822.03 750"/><polygon class="cls-5" points="822.03 1902.35 822.03 1992.88 4927.99 1228.18 4773.08 1214.97 822.03 1902.35"/><polygon class="cls-5" points="822.03 1702.08 822.03 1770.13 4775.61 1163 4623.57 1154.5 822.03 1702.08"/><polygon class="cls-5" points="822 1514.25 822.03 1573.98 4623.57 1100.41 4479.21 1100.18 822 1514.25"/><polygon class="cls-5" points="822.03 1345.21 822.03 1387.48 4481.21 1041.41 4337.03 1034.56 822.03 1345.21"/><polygon class="cls-5" points="822.03 1202.84 822.03 1234.21 4339.52 984.09 4197.32 976.44 822.03 1202.84"/><polygon class="cls-5" points="822.03 1074.08 822.03 1099.98 4199.13 923.01 4064.93 919.09 822.03 1074.08"/><polygon class="cls-5" points="822.03 961.98 822.03 977.79 4066.2 864.07 3935.93 861.35 822.03 961.98"/><polygon class="cls-5" points="822 2143.88 822.03 2351.5 4941.33 2351.5 4941.33 1287.11 822 2143.88"/><polygon class="cls-5" points="822.03 848.55 822.03 864.24 3937.37 805.05 3806.07 803.65 822.03 848.55"/></g></g></g></svg>