<?xml version="1.0" encoding="UTF-8"?><svg id="logos" xmlns="http://www.w3.org/2000/svg" xmlns:xlink="http://www.w3.org/1999/xlink" viewBox="0 0 1050 1400"><defs><style>.cls-1{fill:#6952a1;}.cls-1,.cls-2,.cls-3,.cls-4,.cls-5,.cls-6,.cls-7,.cls-8,.cls-9,.cls-10,.cls-11,.cls-12,.cls-13,.cls-14,.cls-15{stroke-width:0px;}.cls-2{fill:url(#linear-gradient);}.cls-3{fill:#eccea8;}.cls-4{fill:#989fc9;}.cls-16{clip-path:url(#clippath-2);}.cls-5{fill:#1d2041;}.cls-17{clip-path:url(#clippath-6);}.cls-6{fill:#a4abd5;}.cls-7{fill:none;}.cls-8,.cls-18{fill:#7f47dd;}.cls-19{clip-path:url(#clippath-7);}.cls-20{clip-path:url(#clippath-1);}.cls-21{clip-path:url(#clippath-4);}.cls-9{fill:url(#linear-gradient-2);}.cls-10{fill:url(#linear-gradient-3);}.cls-22{clip-path:url(#clippath);}.cls-11{fill:#654ea3;}.cls-23{clip-path:url(#clippath-3);}.cls-12{fill:#a09cc5;}.cls-13{fill:#a4abd5;}.cls-14{fill:#c5a2cc;}.cls-24{clip-path:url(#clippath-5);}.cls-15{fill:url(#linear-gradient-4);}</style><clipPath id="clippath"><rect class="cls-7" x="1150" width="345.75" height="461"/></clipPath><clipPath id="clippath-1"><rect class="cls-7" x="971.22" y="-45.97" width="676" height="507"/></clipPath><clipPath id="clippath-2"><rect id="mask-2" class="cls-8" x="-175" y="175" width="1400" height="1050" transform="translate(1225 175) rotate(90)"/></clipPath><clipPath id="clippath-3"><rect class="cls-7" x="-533" y="-365" width="2048" height="1536"/></clipPath><clipPath id="clippath-4"><polygon class="cls-7" points="522.29 577.44 333.85 578.28 159.6 609.49 159.6 566.26 522.61 539.91 522.29 577.44"/></clipPath><linearGradient id="linear-gradient" x1="2716.2" y1="1205.48" x2="2717.2" y2="1205.48" gradientTransform="translate(25613.25 57531.85) rotate(-90) scale(20.96 -20.96)" gradientUnits="userSpaceOnUse"><stop offset="0" stop-color="#654ea3"/><stop offset=".1" stop-color="#654ea3"/><stop offset="1" stop-color="#60449a"/></linearGradient><clipPath id="clippath-5"><polygon class="cls-7" points="741.05 802.79 528.42 812.88 346.24 884.91 346.24 828.96 741.05 754.77 741.05 802.79"/></clipPath><linearGradient id="linear-gradient-2" x1="2721.66" y1="1160.29" x2="2722.66" y2="1160.29" gradientTransform="translate(34710.81 80976.82) rotate(-90) scale(29.45 -29.45)" gradientUnits="userSpaceOnUse"><stop offset="0" stop-color="#654ea3"/><stop offset=".79" stop-color="#61469c"/><stop offset="1" stop-color="#60449a"/></linearGradient><clipPath id="clippath-6"><polygon class="cls-7" points="1027.46 743.22 864.6 749.42 741.05 802.79 741.05 754.77 1028.95 702.98 1027.46 743.22"/></clipPath><linearGradient id="linear-gradient-3" x1="2725.78" y1="1147.85" x2="2726.78" y2="1147.85" gradientTransform="translate(38689.59 90549.13) rotate(-90) scale(32.94 -32.94)" gradientUnits="userSpaceOnUse"><stop offset="0" stop-color="#654ea3"/><stop offset=".65" stop-color="#62499e"/><stop offset="1" stop-color="#60449a"/></linearGradient><clipPath id="clippath-7"><polygon class="cls-7" points="799.28 552.96 641.22 553.81 522.29 577.44 522.61 539.91 799.8 518.01 799.28 552.96"/></clipPath><linearGradient id="linear-gradient-4" x1="2716.13" y1="1166.53" x2="2717.13" y2="1166.53" gradientTransform="translate(33328.68 76630.43) rotate(-90) scale(28 -28)" gradientUnits="userSpaceOnUse"><stop offset="0" stop-color="#654ea3"/><stop offset=".63" stop-color="#634ba0"/><stop offset="1" stop-color="#60449a"/></linearGradient></defs><g id="alternate_horizontal"><g id="alt_horizontal_black_on_trans"><g id="logo"><g class="cls-22"><g class="cls-20"><rect class="cls-3" x="971.22" y="-45.97" width="676" height="507"/><polygon class="cls-11" points="971.22 402.18 971.22 426.96 1644.46 286.94 1645.03 276.69 971.22 402.18"/><polygon class="cls-11" points="971.22 365.63 971.22 387.33 1619.6 274.52 1620.02 266 971.22 365.63"/><polygon class="cls-11" points="971.22 333.44 971.22 354.46 1595.06 264.6 1595.07 255.73 971.22 333.44"/><polygon class="cls-11" points="971.22 302.83 971.22 323.64 1571.38 255.69 1571.71 246.04 971.22 302.83"/><polygon class="cls-11" points="971.22 277.68 971.22 295.9 1548.05 244.92 1548.46 236.64 971.22 277.68"/><polygon class="cls-11" points="971.22 255.65 971.22 272.53 1525.12 235.38 1525.42 226.61 971.22 255.65"/><polygon class="cls-11" points="971.22 235.6 971.22 251.4 1503.39 225.97 1503.6 216.94 971.22 235.6"/><polygon class="cls-11" points="971.22 216.97 971.22 233.01 1482.22 216.49 1482.46 207.26 971.22 216.97"/><polygon class="cls-11" points="971.22 198.22 971.22 214.39 1460.92 207.03 1461.05 198.04 971.22 198.22"/><polygon class="cls-11" points="971.22 198.22 1441.13 198.05 1441.24 188.74 971.22 182.45 971.22 198.22"/><polygon class="cls-6" points="971.22 387.33 971.22 402.18 1645.03 276.69 1619.6 274.52 971.22 387.33"/><polygon class="cls-6" points="971.22 354.46 971.22 365.63 1620.02 266 1595.07 264.6 971.22 354.46"/><polygon class="cls-6" points="971.22 323.64 971.22 333.44 1595.07 255.73 1571.38 255.69 971.22 323.64"/><polygon class="cls-6" points="971.22 295.9 971.22 302.83 1571.71 246.04 1548.05 244.92 971.22 295.9"/><polygon class="cls-6" points="971.22 272.53 971.22 277.68 1548.46 236.64 1525.12 235.38 971.22 272.53"/><polygon class="cls-6" points="971.22 251.4 971.22 255.65 1525.42 226.61 1503.39 225.97 971.22 251.4"/><polygon class="cls-6" points="971.22 233.01 971.22 235.6 1503.6 216.94 1482.22 216.49 971.22 233.01"/><polygon class="cls-6" points="971.22 426.96 971.22 461.03 1647.22 461.03 1647.22 286.36 971.22 426.96"/><polygon class="cls-6" points="971.22 214.39 971.22 216.97 1482.46 207.26 1460.91 207.03 971.22 214.39"/></g></g></g></g></g><g id="primary_vertical"><g id="logo-2"><rect id="mask" class="cls-18" x="-175" y="175" width="1400" height="1050" transform="translate(1225 175) rotate(90)"/><g class="cls-16"><g class="cls-23"><rect class="cls-3" x="-533" y="-365" width="2048" height="1536"/><polygon class="cls-11" points="-532.99 992.71 -532.99 1067.78 1506.65 643.56 1508.37 612.52 -532.99 992.71"/><polygon class="cls-11" points="-532.99 881.96 -532.99 947.7 1431.35 605.95 1432.61 580.12 -532.99 881.96"/><polygon class="cls-11" points="-532.99 784.44 -532.99 848.13 1357 575.89 1357.02 549 -532.99 784.44"/><polygon class="cls-11" points="-532.99 691.72 -533 754.75 1285.25 548.89 1286.24 519.67 -532.99 691.72"/><polygon class="cls-11" points="-532.99 615.52 -532.99 670.7 1214.56 516.26 1215.8 491.17 -532.99 615.52"/><polygon class="cls-11" points="-532.99 548.78 -532.99 599.92 1145.1 487.37 1146 460.8 -532.99 548.78"/><polygon class="cls-11" points="-532.99 488.03 -532.99 535.91 1079.28 458.85 1079.91 431.5 -532.99 488.03"/><polygon class="cls-11" points="-532.99 431.58 -532.99 480.18 1015.14 430.15 1015.86 402.16 -532.99 431.58"/><polygon class="cls-11" points="-532.99 374.78 -532.99 423.78 950.6 401.46 951 374.23 -532.99 374.78"/><polygon class="cls-11" points="-532.99 374.78 890.65 374.26 890.99 346.08 -532.99 327 -532.99 374.78"/><polygon class="cls-6" points="-532.99 947.69 -532.99 992.71 1508.37 612.52 1431.35 605.95 -532.99 947.69"/><polygon class="cls-6" points="-532.99 848.13 -532.99 881.96 1432.61 580.12 1357.02 575.89 -532.99 848.13"/><polygon class="cls-6" points="-533 754.75 -532.99 784.44 1357.02 549 1285.25 548.88 -533 754.75"/><polygon class="cls-6" points="-532.99 670.7 -532.99 691.72 1286.24 519.67 1214.56 516.26 -532.99 670.7"/><polygon class="cls-6" points="-532.99 599.92 -532.99 615.52 1215.8 491.17 1145.1 487.37 -532.99 599.92"/><polygon class="cls-6" points="-532.99 535.91 -532.99 548.78 1146 460.8 1079.28 458.85 -532.99 535.91"/><polygon class="cls-6" points="-532.99 480.18 -532.99 488.04 1079.91 431.5 1015.14 430.15 -532.99 480.18"/><polygon class="cls-6" points="-533 1067.78 -532.99 1171 1515 1171 1515 641.82 -533 1067.78"/><polygon class="cls-6" points="-532.99 423.78 -532.99 431.58 1015.86 402.16 950.58 401.46 -532.99 423.78"/><g class="cls-21"><rect class="cls-2" x="157.21" y="523.73" width="367.79" height="101.94" transform="translate(-50.29 33) rotate(-5.16)"/></g><g class="cls-24"><rect class="cls-9" x="338.35" y="723.9" width="410.59" height="191.88" transform="translate(-124.65 97.99) rotate(-9.25)"/></g><g class="cls-17"><rect class="cls-10" x="733.66" y="672.95" width="302.69" height="159.86" transform="translate(-142.19 209.81) rotate(-12.52)"/></g><polygon class="cls-4" points="346.24 884.91 528.42 812.88 741.05 802.79 346.24 884.91"/><polygon class="cls-12" points="159.6 609.49 333.85 578.28 522.29 577.44 159.6 609.49"/><polygon class="cls-12" points="522.29 577.44 641.22 553.81 799.28 552.96 522.29 577.44"/><g class="cls-19"><rect class="cls-15" x="519.91" y="503.32" width="282.28" height="88.8" transform="translate(-54.85 73.93) rotate(-6.15)"/></g><polygon class="cls-4" points="741.05 802.79 864.6 749.42 1027.46 743.22 741.05 802.79"/><polygon class="cls-6" points="1038.72 585.57 347.9 669.67 159.6 609.49 799.28 552.96 1038.72 585.57"/><polygon class="cls-6" points="805.86 415.46 157.95 431.5 2.84 415.72 560.57 407.33 805.86 415.46"/><polygon class="cls-1" points="743.57 666.38 347.34 723.34 347.9 669.83 746.85 621.32 743.57 666.38"/><polygon class="cls-1" points="524.46 463.38 158.51 477.01 157.95 431.5 525.7 422.4 524.46 463.38"/><polygon class="cls-1" points="523.41 502.26 159.07 522.46 158.51 477.01 524.46 463.38 523.41 502.26"/><polygon class="cls-1" points="522.61 539.91 159.6 566.26 159.07 522.46 523.41 502.27 522.61 539.91"/><polygon class="cls-1" points="803.83 450.37 524.46 463.38 525.7 422.4 805.86 415.47 803.83 450.37"/><polygon class="cls-1" points="801.84 484.22 523.41 502.27 524.46 463.38 803.83 450.37 801.84 484.22"/><polygon class="cls-1" points="799.8 520.76 522.61 539.91 523.42 502.27 801.84 484.22 799.8 520.76"/><polygon class="cls-1" points="742.53 711.66 346.79 776.1 347.34 723.34 743.51 666.39 742.53 711.66"/><polygon class="cls-1" points="1035.05 626.06 743.51 666.39 746.85 621.32 1038.72 585.57 1035.05 626.06"/><polygon class="cls-1" points="1031.26 666.39 742.53 711.66 743.57 666.38 1035.05 626.06 1031.26 666.39"/><polygon class="cls-1" points="1028.95 702.98 741.05 754.77 742.53 711.66 1031.26 666.39 1028.95 702.98"/><polygon class="cls-1" points="741.05 754.77 346.24 828.96 346.79 776.1 742.53 711.66 741.05 754.77"/><polygon class="cls-14" points="346.24 828.96 292.8 804.03 291.75 755.31 247.12 735.76 246.8 687.7 199.41 671.82 199.99 622.4 347.9 669.83 346.24 828.96"/><polygon class="cls-14" points="159.6 566.26 120.52 556.09 120.55 514.54 87.59 506.27 86.8 466.3 53.91 461.21 52.42 420.76 157.95 431.5 159.6 566.26"/><polygon class="cls-1" points="306.2 411.15 23.89 415.4 23.13 333.77 307.84 337.66 306.2 411.15"/><polygon class="cls-1" points="560.57 407.33 306.2 411.15 307.83 337.66 561.37 340.85 560.57 407.33"/><polygon class="cls-14" points="23.51 374.58 -3.43 374.59 -4.52 334.08 23.13 333.77 23.51 374.58"/></g><g id="extended_base"><polygon class="cls-13" points="1514 1657 -533.99 1643 -534 1082.78 1514 656.82 1514 1657"/></g></g></g><g id="text"><path class="cls-5" d="M95.19,1131.79c-7.3-2.16-13.74-5.13-19.34-8.9l5.09-27h5.35c7.13,21.63,19.43,32.44,36.91,32.44,6.96,0,12.51-1.5,16.67-4.5,4.16-3,6.24-7.01,6.24-12.04,0-3.77-1.23-7.01-3.69-9.73-2.46-2.72-5.52-4.99-9.16-6.8-3.65-1.81-8.78-4.05-15.4-6.7-7.81-2.93-14.17-5.72-19.09-8.37-4.92-2.65-9.12-6.14-12.6-10.47-3.48-4.32-5.22-9.7-5.22-16.12,0-9.35,3.52-16.67,10.56-21.98,7.04-5.3,16.93-7.95,29.65-7.95,7.46,0,14.8.7,22.02,2.09,7.21,1.4,13.02,3.28,17.44,5.65l-4.58,24.28h-5.35c-3.73-8.79-8.23-15.31-13.49-19.57-5.26-4.25-11.54-6.38-18.84-6.38-6.45,0-11.33,1.26-14.64,3.77-3.31,2.51-4.96,5.65-4.96,9.42,0,4.6,2.12,8.3,6.36,11.09,4.24,2.79,10.86,6.07,19.85,9.84,8.31,3.35,15.06,6.42,20.24,9.21,5.17,2.79,9.63,6.59,13.36,11.41,3.73,4.81,5.6,10.71,5.6,17.69,0,10.88-4.24,19.08-12.73,24.59-8.49,5.51-19.26,8.27-32.33,8.27-8.65,0-16.63-1.08-23.93-3.24Z"/><path class="cls-5" d="M200.69,1128.44c-8.23-4.4-14.76-10.78-19.6-19.15-4.84-8.37-7.25-18.21-7.25-29.51,0-11.86,2.42-22.01,7.25-30.46,4.84-8.44,11.37-14.83,19.6-19.15,8.23-4.32,17.26-6.49,27.11-6.49s18.88,2.17,27.11,6.49c8.23,4.33,14.76,10.71,19.6,19.15,4.84,8.44,7.25,18.6,7.25,30.46s-2.42,21.14-7.25,29.51c-4.84,8.37-11.37,14.76-19.6,19.15-8.23,4.4-17.27,6.59-27.11,6.59s-18.88-2.2-27.11-6.59ZM247.78,1118.5c4.84-6.83,7.25-19.81,7.25-38.93,0-12.56-1.23-22.5-3.69-29.83-2.46-7.33-5.69-12.45-9.67-15.38-3.99-2.93-8.61-4.4-13.87-4.4s-9.89,1.46-13.87,4.4c-3.99,2.93-7.21,8.06-9.67,15.38-2.46,7.33-3.69,17.27-3.69,29.83,0,19.12,2.42,32.1,7.25,38.93,4.84,6.84,11.49,10.26,19.98,10.26s15.14-3.42,19.98-10.26Z"/><path class="cls-5" d="M313.32,1126.77c-5.77-5.51-8.65-15.03-8.65-28.57v-63.63h-17.82v-7.54c8.48-1.12,15.95-4.67,22.4-10.67,6.45-6,11.62-13.61,15.53-22.82h5.35v108.84c0,12.7,5.77,19.05,17.31,19.05,4.24,0,7.8-1.12,10.69-3.35,2.88-2.23,4.33-4.95,4.33-8.16h2.55c0,7.68-2.46,13.78-7.38,18.31-4.92,4.53-11.54,6.8-19.85,6.8-10.52,0-18.67-2.76-24.44-8.27ZM313.58,1027.03h49.38v7.33h-49.38v-7.33Z"/><path class="cls-5" d="M383.19,1128.44c-6.2-4.4-9.29-10.22-9.29-17.48,0-8.79,4.54-16.6,13.62-23.44,9.08-6.83,19.94-12.17,32.58-16.01,12.64-3.84,23.71-5.76,33.22-5.76l.25,7.74c-7.98,0-16.16,1.36-24.56,4.08-8.4,2.72-15.4,6.7-21,11.93s-8.4,11.27-8.4,18.11c0,5.16,1.61,9.31,4.84,12.45,3.22,3.14,7.29,4.71,12.22,4.71,6.11,0,11.54-2.23,16.29-6.7,4.75-4.46,8.53-10.08,11.33-16.85,2.8-6.77,4.28-13.5,4.45-20.2h4.07v26.58h-3.82c-1.53,4.33-4.24,8.58-8.15,12.77-3.91,4.19-8.83,7.68-14.76,10.47-5.94,2.79-12.56,4.19-19.85,4.19-9.16,0-16.84-2.2-23.04-6.59ZM450.26,1117.04v-11.09l-1.53-10.88v-40.82c0-14.93-6.53-22.4-19.6-22.4-5.43,0-9.51,1.08-12.22,3.24-2.72,2.17-5.43,5.34-8.15,9.52-2.21,3.35-4.16,5.79-5.85,7.33-1.7,1.54-4.16,2.3-7.38,2.3-3.56,0-6.36-1.01-8.4-3.04-2.04-2.02-3.05-4.5-3.05-7.43,0-3.77,1.87-7.19,5.6-10.26,3.73-3.07,8.87-5.47,15.4-7.22,6.53-1.74,13.96-2.62,22.27-2.62,15.27,0,26.89,2.55,34.87,7.64,7.97,5.1,11.96,12.74,11.96,22.92v56.51c0,5.72,1.78,8.58,5.35,8.58,2.04,0,3.77-.84,5.22-2.51,1.44-1.67,2.16-3.98,2.16-6.91h1.78c0,7.54-1.91,13.61-5.73,18.21-3.82,4.6-9.29,6.91-16.42,6.91-10.86,0-16.29-6-16.29-18Z"/><path class="cls-5" d="M95.19,1308.32c-7.3-2.16-13.74-5.13-19.34-8.9l5.09-27h5.35c7.13,21.63,19.43,32.44,36.91,32.44,6.96,0,12.51-1.5,16.67-4.5,4.16-3,6.24-7.01,6.24-12.04,0-3.77-1.23-7.01-3.69-9.73-2.46-2.72-5.52-4.99-9.16-6.8-3.65-1.81-8.78-4.05-15.4-6.7-7.81-2.93-14.17-5.72-19.09-8.37-4.92-2.65-9.12-6.14-12.6-10.47-3.48-4.32-5.22-9.7-5.22-16.12,0-9.35,3.52-16.67,10.56-21.98,7.04-5.3,16.93-7.95,29.65-7.95,7.46,0,14.8.7,22.02,2.09,7.21,1.4,13.02,3.28,17.44,5.65l-4.58,24.28h-5.35c-3.73-8.79-8.23-15.31-13.49-19.57-5.26-4.25-11.54-6.38-18.84-6.38-6.45,0-11.33,1.26-14.64,3.77-3.31,2.51-4.96,5.65-4.96,9.42,0,4.6,2.12,8.3,6.36,11.09,4.24,2.79,10.86,6.07,19.85,9.84,8.31,3.35,15.06,6.42,20.24,9.21,5.17,2.79,9.63,6.59,13.36,11.41,3.73,4.81,5.6,10.71,5.6,17.69,0,10.88-4.24,19.08-12.73,24.59-8.49,5.51-19.26,8.27-32.33,8.27-8.65,0-16.63-1.08-23.93-3.24Z"/><path class="cls-5" d="M200.31,1303.3c-5.77-5.51-8.65-15.03-8.65-28.57v-63.63h-17.82v-7.54c8.48-1.12,15.95-4.67,22.4-10.67,6.45-6,11.62-13.61,15.53-22.82h5.35v108.84c0,12.7,5.77,19.05,17.31,19.05,4.24,0,7.8-1.12,10.69-3.35,2.88-2.23,4.33-4.95,4.33-8.16h2.55c0,7.68-2.46,13.78-7.38,18.31-4.92,4.53-11.54,6.8-19.85,6.8-10.52,0-18.67-2.76-24.44-8.27ZM200.57,1203.56h49.38v7.33h-49.38v-7.33Z"/><path class="cls-5" d="M270.18,1304.98c-6.2-4.4-9.29-10.22-9.29-17.48,0-8.79,4.54-16.6,13.62-23.44,9.08-6.83,19.94-12.17,32.58-16.01,12.64-3.84,23.71-5.76,33.22-5.76l.25,7.74c-7.98,0-16.16,1.36-24.56,4.08-8.4,2.72-15.4,6.7-21,11.93s-8.4,11.27-8.4,18.11c0,5.16,1.61,9.31,4.84,12.45,3.22,3.14,7.29,4.71,12.22,4.71,6.11,0,11.54-2.23,16.29-6.7,4.75-4.46,8.53-10.08,11.33-16.85,2.8-6.77,4.28-13.5,4.45-20.2h4.07v26.58h-3.82c-1.53,4.33-4.24,8.58-8.15,12.77-3.91,4.19-8.83,7.68-14.76,10.47-5.94,2.79-12.56,4.19-19.85,4.19-9.16,0-16.84-2.2-23.04-6.59ZM337.25,1293.57v-11.09l-1.53-10.88v-40.82c0-14.93-6.53-22.4-19.6-22.4-5.43,0-9.51,1.08-12.22,3.24-2.72,2.17-5.43,5.34-8.15,9.52-2.21,3.35-4.16,5.79-5.85,7.33-1.7,1.54-4.16,2.3-7.38,2.3-3.56,0-6.36-1.01-8.4-3.04-2.04-2.02-3.05-4.5-3.05-7.43,0-3.77,1.87-7.19,5.6-10.26,3.73-3.07,8.87-5.47,15.4-7.22,6.53-1.74,13.96-2.62,22.27-2.62,15.27,0,26.89,2.55,34.87,7.64,7.97,5.1,11.96,12.74,11.96,22.92v56.51c0,5.72,1.78,8.58,5.35,8.58,2.04,0,3.77-.84,5.22-2.51,1.44-1.67,2.16-3.98,2.16-6.91h1.78c0,7.54-1.91,13.61-5.73,18.21-3.82,4.6-9.29,6.91-16.42,6.91-10.86,0-16.29-6-16.29-18Z"/><path class="cls-5" d="M381.28,1308.22v-4.19c5.77-1.12,9.71-3,11.84-5.65,2.12-2.65,3.18-7.33,3.18-14.02v-56.93c0-6.7-1.06-11.37-3.18-14.02-2.12-2.65-6.07-4.53-11.84-5.65v-4.19h40.47v80.8c0,6.7,1.06,11.38,3.18,14.02,2.12,2.65,6.07,4.54,11.84,5.65v4.19h-55.49ZM395.41,1186.5c-3.48-2.86-5.22-6.31-5.22-10.36s1.74-7.46,5.22-10.26c3.48-2.79,7.68-4.19,12.6-4.19s9.08,1.4,12.47,4.19c3.39,2.79,5.09,6.21,5.09,10.26s-1.7,7.5-5.09,10.36c-3.4,2.86-7.55,4.29-12.47,4.29s-9.12-1.43-12.6-4.29Z"/><path class="cls-5" d="M445.42,1308.22v-4.19c5.77-1.12,9.71-3,11.84-5.65,2.12-2.65,3.18-7.33,3.18-14.02v-56.93c0-6.7-1.06-11.37-3.18-14.02-2.12-2.65-6.07-4.53-11.84-5.65v-4.19h40.47v80.8c0,6.7,1.06,11.38,3.18,14.02,2.12,2.65,6.07,4.54,11.84,5.65v4.19h-55.49ZM480.29,1221.56h6.87c3.56-7.12,8.23-12.45,14-16.01,5.77-3.56,12.13-5.34,19.09-5.34,5.6,0,10.05,1.08,13.36,3.24,3.31,2.17,4.96,5.13,4.96,8.9,0,2.93-1.06,5.41-3.18,7.43-2.12,2.02-4.8,3.03-8.02,3.03-2.04,0-3.82-.35-5.35-1.05-1.53-.7-3.48-1.81-5.85-3.35-2.38-1.53-4.29-2.62-5.73-3.24-1.44-.63-3.1-.94-4.96-.94-4.58,0-8.7,2.41-12.34,7.22-3.65,4.81-6.07,12.04-7.25,21.66h-5.6v-21.56Z"/><path class="cls-5" d="M566.45,1305.92c-7.72-3.77-13.96-9.49-18.71-17.16-4.75-7.67-7.13-17.09-7.13-28.26,0-12.7,2.42-23.58,7.25-32.65,4.84-9.07,11.54-15.94,20.11-20.62,8.57-4.67,18.45-7.01,29.65-7.01,8.82,0,16.37.94,22.65,2.83,6.28,1.88,11.03,4.36,14.25,7.43,3.22,3.07,4.84,6.35,4.84,9.84,0,3.07-1.06,5.58-3.18,7.54-2.12,1.96-4.88,2.93-8.27,2.93-3.56,0-6.15-.8-7.76-2.41-1.61-1.6-3.27-4.22-4.96-7.85-1.19-2.93-2.42-5.34-3.69-7.22-1.27-1.88-3.23-3.45-5.85-4.71-2.63-1.26-6.15-1.88-10.56-1.88-18.67,0-28,15.63-28,46.89,0,13.26,3.05,24.07,9.16,32.44,6.11,8.37,14.59,12.56,25.45,12.56,7.64,0,14.42-2.06,20.36-6.17,5.94-4.11,10.44-10.78,13.49-19.99l5.6,1.05c-2.54,11.72-7.89,21-16.04,27.84-8.15,6.84-19.18,10.26-33.09,10.26-9.33,0-17.86-1.88-25.58-5.65Z"/><path class="cls-5" d="M660.38,1304.98c-6.2-4.4-9.29-10.22-9.29-17.48,0-8.79,4.54-16.6,13.62-23.44,9.08-6.83,19.94-12.17,32.58-16.01,12.64-3.84,23.71-5.76,33.22-5.76l.25,7.74c-7.98,0-16.16,1.36-24.56,4.08-8.4,2.72-15.4,6.7-21,11.93-5.6,5.23-8.4,11.27-8.4,18.11,0,5.16,1.61,9.31,4.84,12.45,3.22,3.14,7.29,4.71,12.22,4.71,6.11,0,11.54-2.23,16.29-6.7,4.75-4.46,8.53-10.08,11.33-16.85,2.8-6.77,4.28-13.5,4.45-20.2h4.07v26.58h-3.82c-1.53,4.33-4.24,8.58-8.15,12.77-3.91,4.19-8.83,7.68-14.76,10.47-5.94,2.79-12.56,4.19-19.85,4.19-9.16,0-16.84-2.2-23.04-6.59ZM727.44,1293.57v-11.09l-1.53-10.88v-40.82c0-14.93-6.53-22.4-19.6-22.4-5.43,0-9.51,1.08-12.22,3.24-2.72,2.17-5.43,5.34-8.15,9.52-2.21,3.35-4.16,5.79-5.85,7.33-1.7,1.54-4.16,2.3-7.38,2.3-3.56,0-6.36-1.01-8.4-3.04-2.04-2.02-3.05-4.5-3.05-7.43,0-3.77,1.87-7.19,5.6-10.26,3.73-3.07,8.87-5.47,15.4-7.22,6.53-1.74,13.96-2.62,22.27-2.62,15.27,0,26.89,2.55,34.87,7.64,7.97,5.1,11.96,12.74,11.96,22.92v56.51c0,5.72,1.78,8.58,5.34,8.58,2.04,0,3.77-.84,5.22-2.51,1.44-1.67,2.16-3.98,2.16-6.91h1.78c0,7.54-1.91,13.61-5.73,18.21-3.82,4.6-9.29,6.91-16.42,6.91-10.86,0-16.29-6-16.29-18Z"/><path class="cls-5" d="M794.13,1308.32c-7.3-2.16-13.75-5.13-19.34-8.9l5.09-27h5.35c7.13,21.63,19.43,32.44,36.91,32.44,6.96,0,12.51-1.5,16.67-4.5,4.16-3,6.24-7.01,6.24-12.04,0-3.77-1.23-7.01-3.69-9.73-2.46-2.72-5.52-4.99-9.16-6.8-3.65-1.81-8.78-4.05-15.4-6.7-7.81-2.93-14.17-5.72-19.09-8.37-4.92-2.65-9.12-6.14-12.6-10.47-3.48-4.32-5.22-9.7-5.22-16.12,0-9.35,3.52-16.67,10.56-21.98,7.04-5.3,16.93-7.95,29.65-7.95,7.46,0,14.8.7,22.02,2.09,7.21,1.4,13.02,3.28,17.44,5.65l-4.58,24.28h-5.35c-3.73-8.79-8.23-15.31-13.49-19.57-5.26-4.25-11.54-6.38-18.83-6.38-6.45,0-11.33,1.26-14.64,3.77-3.31,2.51-4.96,5.65-4.96,9.42,0,4.6,2.12,8.3,6.36,11.09,4.24,2.79,10.86,6.07,19.85,9.84,8.31,3.35,15.06,6.42,20.24,9.21,5.17,2.79,9.63,6.59,13.36,11.41,3.73,4.81,5.6,10.71,5.6,17.69,0,10.88-4.24,19.08-12.73,24.59-8.49,5.51-19.26,8.27-32.33,8.27-8.65,0-16.63-1.08-23.93-3.24Z"/><path class="cls-5" d="M898.74,1305.39c-8.15-4.11-14.51-10.12-19.09-18-4.58-7.88-6.87-17.2-6.87-27.94,0-12.84,2.46-23.72,7.38-32.65,4.92-8.93,11.49-15.59,19.73-19.99,8.23-4.4,17.18-6.59,26.85-6.59,16.29,0,28.72,4.47,37.29,13.4,8.57,8.93,12.26,21.49,11.07,37.68h-84v-7.33h65.92l-6.36,4.19c.85-10.47.51-18.73-1.02-24.8-1.53-6.07-4.16-10.39-7.89-12.98-3.73-2.58-8.74-3.87-15.02-3.87-8.15,0-14.76,3.53-19.85,10.57-5.09,7.05-7.64,17.62-7.64,31.71,0,15.91,3.14,27.84,9.42,35.79,6.28,7.95,15.53,11.93,27.74,11.93,18.16,0,30.04-8.86,35.63-26.58l5.09.84c-3.56,13.81-9.5,24.07-17.82,30.77-8.32,6.7-19.18,10.05-32.58,10.05-10.52,0-19.85-2.06-28-6.17Z"/></g></g></svg>