<?xml version="1.0" encoding="UTF-8"?><svg xmlns="http://www.w3.org/2000/svg" xmlns:xlink="http://www.w3.org/1999/xlink" viewBox="0 0 2600 283"><defs><style>.cls-1{fill:#eccea8;}.cls-1,.cls-2,.cls-3,.cls-4,.cls-5{stroke-width:0px;}.cls-6{clip-path:url(#clippath-2);}.cls-7{isolation:isolate;}.cls-2{fill:#a4abd5;}.cls-3{fill:none;}.cls-8{clip-path:url(#clippath-1);}.cls-4{fill:#eccea8;}.cls-9{clip-path:url(#clippath);}.cls-5{fill:#654ea3;}.cls-10{mix-blend-mode:luminosity;}.cls-11{clip-path:url(#clippath-3);}</style><clipPath id="clippath"><rect class="cls-3" x="2767.43" y="72.5" width="345.75" height="461"/></clipPath><clipPath id="clippath-1"><rect class="cls-3" x="2588.65" y="26.53" width="676" height="507"/></clipPath><clipPath id="clippath-2"><rect id="mask" class="cls-3" x="-558" y="700" width="2048" height="2048"/></clipPath><clipPath id="clippath-3"><rect class="cls-3" x="-1372" y="-38" width="4119.33" height="3089.5"/></clipPath></defs><g class="cls-7"><g id="logos"><g id="text_only"><g id="oneline" class="cls-10"><path class="cls-4" d="M37.7,276.79c-13.77-4.08-25.94-9.68-36.51-16.79l9.61-50.96h10.09c13.45,40.82,36.66,61.22,69.65,61.22,13.13,0,23.61-2.83,31.46-8.49,7.84-5.66,11.77-13.23,11.77-22.71,0-7.11-2.33-13.23-6.96-18.37-4.65-5.13-10.41-9.41-17.29-12.84-6.89-3.42-16.57-7.63-29.06-12.64-14.73-5.53-26.74-10.79-36.03-15.8-9.29-5-17.22-11.58-23.78-19.75-6.57-8.16-9.85-18.3-9.85-30.42,0-17.64,6.64-31.46,19.93-41.47,13.28-10,31.94-15.01,55.96-15.01,14.09,0,27.93,1.32,41.55,3.95,13.61,2.64,24.57,6.19,32.9,10.67l-8.65,45.82h-10.09c-7.05-16.59-15.54-28.9-25.46-36.93-9.93-8.03-21.78-12.05-35.54-12.05-12.17,0-21.38,2.37-27.62,7.11-6.24,4.74-9.37,10.67-9.37,17.77,0,8.69,4,15.67,12.01,20.94,8,5.27,20.49,11.46,37.47,18.56,15.69,6.32,28.41,12.12,38.19,17.38,9.76,5.27,18.17,12.44,25.22,21.53,7.04,9.08,10.57,20.21,10.57,33.38,0,20.54-8.01,36.01-24.02,46.41-16.02,10.4-36.35,15.6-61,15.6-16.33,0-31.39-2.04-45.15-6.12Z"/><path class="cls-4" d="M236.8,270.47c-15.54-8.3-27.86-20.34-36.99-36.14-9.13-15.8-13.69-34.37-13.69-55.7,0-22.38,4.56-41.54,13.69-57.47,9.13-15.93,21.45-27.98,36.99-36.14,15.53-8.16,32.58-12.25,51.16-12.25s35.62,4.09,51.16,12.25c15.53,8.17,27.86,20.21,36.99,36.14,9.13,15.94,13.69,35.09,13.69,57.47s-4.56,39.89-13.69,55.7c-9.13,15.8-21.46,27.85-36.99,36.14-15.54,8.29-32.59,12.44-51.16,12.44s-35.63-4.15-51.16-12.44ZM325.66,251.71c9.13-12.9,13.69-37.39,13.69-73.47,0-23.7-2.33-42.46-6.96-56.29-4.65-13.83-10.73-23.5-18.25-29.03-7.53-5.53-16.26-8.29-26.18-8.29s-18.66,2.76-26.18,8.29c-7.53,5.53-13.61,15.21-18.25,29.03-4.65,13.83-6.96,32.59-6.96,56.29,0,36.08,4.56,60.57,13.69,73.47,9.13,12.91,21.69,19.35,37.71,19.35s28.58-6.45,37.71-19.35Z"/><path class="cls-4" d="M449.34,267.31c-10.89-10.4-16.33-28.37-16.33-53.92v-120.08h-33.62v-14.22c16.01-2.1,30.1-8.82,42.27-20.14,12.17-11.32,21.93-25.68,29.3-43.06h10.09v205.4c0,23.96,10.88,35.94,32.66,35.94,8,0,14.73-2.1,20.17-6.32,5.44-4.21,8.17-9.34,8.17-15.41h4.8c0,14.49-4.65,26.01-13.93,34.56-9.29,8.55-21.78,12.84-37.47,12.84-19.86,0-35.23-5.2-46.11-15.6ZM449.82,79.09h93.19v13.83h-93.19v-13.83Z"/><path class="cls-4" d="M581.19,270.47c-11.69-8.3-17.53-19.29-17.53-32.98,0-16.59,8.56-31.33,25.7-44.24,17.13-12.9,37.62-22.97,61.48-30.22,23.85-7.24,44.75-10.86,62.68-10.86l.48,14.62c-15.06,0-30.5,2.57-46.35,7.7s-29.06,12.64-39.63,22.51-15.85,21.27-15.85,34.17c0,9.75,3.04,17.58,9.13,23.5,6.08,5.93,13.76,8.89,23.06,8.89,11.53,0,21.77-4.21,30.74-12.64,8.96-8.42,16.09-19.02,21.38-31.8,5.28-12.77,8.08-25.48,8.41-38.12h7.69v50.17h-7.2c-2.88,8.17-8.01,16.19-15.37,24.09-7.37,7.9-16.65,14.49-27.86,19.75-11.21,5.26-23.7,7.9-37.47,7.9-17.29,0-31.78-4.15-43.47-12.44ZM707.76,248.94v-20.93l-2.88-20.54v-77.03c0-28.17-12.33-42.26-36.99-42.26-10.25,0-17.94,2.04-23.06,6.12-5.13,4.09-10.25,10.07-15.37,17.97-4.17,6.32-7.85,10.93-11.05,13.83-3.2,2.9-7.85,4.34-13.93,4.34-6.72,0-12.01-1.91-15.85-5.73-3.84-3.81-5.76-8.49-5.76-14.02,0-7.11,3.52-13.56,10.57-19.35,7.04-5.79,16.73-10.33,29.06-13.63,12.32-3.29,26.34-4.94,42.03-4.94,28.82,0,50.75,4.81,65.81,14.42,15.05,9.62,22.58,24.03,22.58,43.25v106.65c0,10.8,3.36,16.2,10.09,16.2,3.84,0,7.12-1.58,9.85-4.74,2.72-3.16,4.08-7.5,4.08-13.04h3.36c0,14.22-3.6,25.67-10.81,34.37-7.21,8.69-17.53,13.04-30.98,13.04-20.5,0-30.74-11.32-30.74-33.97Z"/><path class="cls-4" d="M934.47,276.79c-13.77-4.08-25.94-9.68-36.51-16.79l9.61-50.96h10.09c13.45,40.82,36.66,61.22,69.65,61.22,13.13,0,23.61-2.83,31.46-8.49,7.84-5.66,11.77-13.23,11.77-22.71,0-7.11-2.33-13.23-6.96-18.37-4.65-5.13-10.41-9.41-17.29-12.84-6.89-3.42-16.57-7.63-29.06-12.64-14.73-5.53-26.74-10.79-36.03-15.8-9.29-5-17.22-11.58-23.78-19.75-6.57-8.16-9.85-18.3-9.85-30.42,0-17.64,6.64-31.46,19.93-41.47,13.28-10,31.94-15.01,55.96-15.01,14.09,0,27.93,1.32,41.55,3.95,13.61,2.64,24.57,6.19,32.9,10.67l-8.65,45.82h-10.09c-7.05-16.59-15.54-28.9-25.46-36.93-9.93-8.03-21.78-12.05-35.54-12.05-12.17,0-21.38,2.37-27.62,7.11-6.24,4.74-9.37,10.67-9.37,17.77,0,8.69,4,15.67,12.01,20.94,8,5.27,20.49,11.46,37.47,18.56,15.69,6.32,28.42,12.12,38.19,17.38,9.76,5.27,18.17,12.44,25.22,21.53,7.04,9.08,10.57,20.21,10.57,33.38,0,20.54-8.01,36.01-24.02,46.41-16.02,10.4-36.35,15.6-61,15.6-16.33,0-31.39-2.04-45.15-6.12Z"/><path class="cls-4" d="M1132.84,267.31c-10.89-10.4-16.33-28.37-16.33-53.92v-120.08h-33.62v-14.22c16.01-2.1,30.1-8.82,42.27-20.14,12.17-11.32,21.93-25.68,29.3-43.06h10.09v205.4c0,23.96,10.88,35.94,32.66,35.94,8,0,14.73-2.1,20.17-6.32,5.44-4.21,8.17-9.34,8.17-15.41h4.8c0,14.49-4.65,26.01-13.93,34.56-9.29,8.55-21.78,12.84-37.47,12.84-19.86,0-35.23-5.2-46.11-15.6ZM1133.32,79.09h93.19v13.83h-93.19v-13.83Z"/><path class="cls-4" d="M1264.7,270.47c-11.69-8.3-17.53-19.29-17.53-32.98,0-16.59,8.56-31.33,25.7-44.24,17.13-12.9,37.62-22.97,61.48-30.22,23.85-7.24,44.75-10.86,62.68-10.86l.48,14.62c-15.06,0-30.5,2.57-46.35,7.7-15.85,5.13-29.06,12.64-39.63,22.51s-15.85,21.27-15.85,34.17c0,9.75,3.04,17.58,9.13,23.5,6.08,5.93,13.76,8.89,23.06,8.89,11.53,0,21.77-4.21,30.74-12.64,8.96-8.42,16.09-19.02,21.38-31.8,5.28-12.77,8.08-25.48,8.41-38.12h7.69v50.17h-7.2c-2.88,8.17-8.01,16.19-15.37,24.09-7.37,7.9-16.65,14.49-27.86,19.75-11.21,5.26-23.7,7.9-37.47,7.9-17.29,0-31.78-4.15-43.47-12.44ZM1391.26,248.94v-20.93l-2.88-20.54v-77.03c0-28.17-12.33-42.26-36.99-42.26-10.25,0-17.94,2.04-23.06,6.12-5.13,4.09-10.25,10.07-15.37,17.97-4.17,6.32-7.85,10.93-11.05,13.83-3.2,2.9-7.85,4.34-13.93,4.34-6.72,0-12.01-1.91-15.85-5.73-3.84-3.81-5.76-8.49-5.76-14.02,0-7.11,3.52-13.56,10.57-19.35,7.04-5.79,16.73-10.33,29.06-13.63,12.32-3.29,26.34-4.94,42.03-4.94,28.82,0,50.75,4.81,65.81,14.42,15.05,9.62,22.58,24.03,22.58,43.25v106.65c0,10.8,3.36,16.2,10.09,16.2,3.84,0,7.12-1.58,9.85-4.74,2.72-3.16,4.08-7.5,4.08-13.04h3.36c0,14.22-3.6,25.67-10.81,34.37-7.21,8.69-17.53,13.04-30.98,13.04-20.5,0-30.74-11.32-30.74-33.97Z"/><path class="cls-4" d="M1474.35,276.59v-7.9c10.88-2.1,18.33-5.66,22.34-10.67,4-5,6-13.82,6-26.46v-107.44c0-12.64-2-21.46-6-26.46-4.01-5-11.45-8.55-22.34-10.67v-7.9h76.37v152.47c0,12.64,2,21.47,6,26.46,4,5.01,11.45,8.56,22.34,10.67v7.9h-104.71ZM1501.01,46.9c-6.57-5.39-9.85-11.91-9.85-19.55s3.28-14.08,9.85-19.35c6.56-5.26,14.48-7.9,23.78-7.9s17.13,2.64,23.54,7.9c6.4,5.27,9.61,11.72,9.61,19.35s-3.2,14.16-9.61,19.55c-6.41,5.4-14.25,8.1-23.54,8.1s-17.22-2.7-23.78-8.1Z"/><path class="cls-4" d="M1595.4,276.59v-7.9c10.88-2.1,18.33-5.66,22.34-10.67,4-5,6-13.82,6-26.46v-107.44c0-12.64-2-21.46-6-26.46-4.01-5-11.45-8.55-22.34-10.67v-7.9h76.37v152.47c0,12.64,2,21.47,6,26.46,4,5.01,11.45,8.56,22.34,10.67v7.9h-104.71ZM1661.2,113.06h12.97c6.72-13.43,15.53-23.5,26.42-30.22,10.88-6.72,22.89-10.07,36.02-10.07,10.57,0,18.97,2.04,25.22,6.12,6.24,4.09,9.37,9.68,9.37,16.79,0,5.53-2,10.21-6,14.02-4.01,3.82-9.05,5.73-15.13,5.73-3.84,0-7.2-.65-10.09-1.97-2.88-1.31-6.57-3.42-11.05-6.32-4.49-2.89-8.09-4.94-10.81-6.12-2.72-1.19-5.85-1.78-9.37-1.78-8.65,0-16.41,4.54-23.3,13.63-6.89,9.08-11.45,22.71-13.69,40.88h-10.57v-40.69Z"/><path class="cls-4" d="M1823.8,272.25c-14.58-7.11-26.34-17.91-35.3-32.39-8.97-14.48-13.45-32.25-13.45-53.32,0-23.96,4.56-44.5,13.69-61.62,9.13-17.12,21.77-30.08,37.95-38.91,16.17-8.82,34.82-13.23,55.96-13.23,16.65,0,30.9,1.78,42.75,5.33,11.84,3.55,20.81,8.23,26.9,14.02,6.08,5.79,9.13,11.99,9.13,18.56,0,5.8-2,10.54-6,14.22-4.01,3.69-9.21,5.53-15.61,5.53-6.72,0-11.61-1.51-14.65-4.54-3.05-3.02-6.17-7.96-9.37-14.81-2.24-5.53-4.56-10.07-6.96-13.63-2.4-3.55-6.09-6.52-11.05-8.89-4.97-2.37-11.61-3.56-19.93-3.56-35.23,0-52.84,29.5-52.84,88.48,0,25.02,5.76,45.42,17.29,61.22s27.54,23.7,48.03,23.7c14.41,0,27.21-3.88,38.43-11.65,11.21-7.76,19.69-20.34,25.46-37.72l10.57,1.97c-4.8,22.12-14.89,39.64-30.26,52.54-15.37,12.91-36.19,19.36-62.44,19.36-17.61,0-33.71-3.56-48.27-10.67Z"/><path class="cls-4" d="M2001.04,270.47c-11.69-8.3-17.53-19.29-17.53-32.98,0-16.59,8.56-31.33,25.7-44.24,17.13-12.9,37.62-22.97,61.48-30.22,23.85-7.24,44.75-10.86,62.68-10.86l.48,14.62c-15.06,0-30.5,2.57-46.35,7.7-15.85,5.13-29.06,12.64-39.63,22.51s-15.85,21.27-15.85,34.17c0,9.75,3.04,17.58,9.13,23.5,6.08,5.93,13.76,8.89,23.06,8.89,11.53,0,21.77-4.21,30.74-12.64,8.96-8.42,16.09-19.02,21.38-31.8,5.28-12.77,8.08-25.48,8.41-38.12h7.69v50.17h-7.21c-2.88,8.17-8.01,16.19-15.37,24.09-7.37,7.9-16.65,14.49-27.86,19.75-11.21,5.26-23.7,7.9-37.47,7.9-17.29,0-31.78-4.15-43.47-12.44ZM2127.61,248.94v-20.93l-2.88-20.54v-77.03c0-28.17-12.33-42.26-36.99-42.26-10.25,0-17.94,2.04-23.06,6.12-5.13,4.09-10.25,10.07-15.37,17.97-4.17,6.32-7.85,10.93-11.05,13.83-3.21,2.9-7.85,4.34-13.93,4.34-6.72,0-12.01-1.91-15.85-5.73-3.84-3.81-5.76-8.49-5.76-14.02,0-7.11,3.52-13.56,10.57-19.35,7.04-5.79,16.73-10.33,29.06-13.63,12.32-3.29,26.34-4.94,42.03-4.94,28.82,0,50.75,4.81,65.81,14.42,15.05,9.62,22.58,24.03,22.58,43.25v106.65c0,10.8,3.36,16.2,10.09,16.2,3.84,0,7.12-1.58,9.85-4.74,2.72-3.16,4.08-7.5,4.08-13.04h3.36c0,14.22-3.6,25.67-10.81,34.37-7.21,8.69-17.53,13.04-30.98,13.04-20.5,0-30.74-11.32-30.74-33.97Z"/><path class="cls-4" d="M2253.45,276.79c-13.77-4.08-25.94-9.68-36.51-16.79l9.61-50.96h10.09c13.45,40.82,36.66,61.22,69.65,61.22,13.13,0,23.61-2.83,31.46-8.49,7.84-5.66,11.77-13.23,11.77-22.71,0-7.11-2.33-13.23-6.96-18.37-4.65-5.13-10.41-9.41-17.29-12.84-6.89-3.42-16.57-7.63-29.06-12.64-14.73-5.53-26.74-10.79-36.03-15.8-9.29-5-17.22-11.58-23.78-19.75-6.57-8.16-9.85-18.3-9.85-30.42,0-17.64,6.64-31.46,19.93-41.47,13.28-10,31.94-15.01,55.96-15.01,14.09,0,27.93,1.32,41.55,3.95,13.61,2.64,24.57,6.19,32.9,10.67l-8.65,45.82h-10.09c-7.05-16.59-15.54-28.9-25.46-36.93-9.93-8.03-21.78-12.05-35.54-12.05-12.17,0-21.38,2.37-27.62,7.11s-9.37,10.67-9.37,17.77c0,8.69,4,15.67,12.01,20.94,8,5.27,20.49,11.46,37.47,18.56,15.69,6.32,28.42,12.12,38.19,17.38,9.76,5.27,18.17,12.44,25.22,21.53,7.04,9.08,10.57,20.21,10.57,33.38,0,20.54-8.01,36.01-24.02,46.41-16.02,10.4-36.35,15.6-61,15.6-16.33,0-31.39-2.04-45.15-6.12Z"/><path class="cls-4" d="M2450.86,271.26c-15.37-7.76-27.38-19.09-36.03-33.97-8.65-14.87-12.97-32.45-12.97-52.73,0-24.22,4.64-44.76,13.93-61.62,9.28-16.85,21.69-29.43,37.23-37.72,15.53-8.29,32.42-12.44,50.68-12.44,30.74,0,54.2,8.43,70.37,25.28,16.17,16.86,23.13,40.56,20.89,71.1h-158.51v-13.82h124.41l-12.01,7.9c1.6-19.75.96-35.35-1.92-46.81s-7.85-19.61-14.89-24.49c-7.05-4.87-16.5-7.31-28.34-7.31-15.37,0-27.86,6.65-37.47,19.95-9.61,13.3-14.41,33.25-14.41,59.84,0,30.02,5.92,52.54,17.77,67.54,11.84,15.01,29.3,22.51,52.36,22.51,34.26,0,56.68-16.72,67.25-50.17l9.61,1.58c-6.73,26.07-17.94,45.42-33.62,58.07-15.69,12.64-36.19,18.96-61.48,18.96-19.86,0-37.47-3.89-52.84-11.65Z"/></g></g><g id="alternate_horizontal"><g id="alt_horizontal_bordered_light"><g id="logo"><g class="cls-9"><g class="cls-8"><rect class="cls-1" x="2588.65" y="26.53" width="676" height="507"/><polygon class="cls-5" points="2588.65 289.47 2588.65 305.51 3099.65 288.99 3099.89 279.76 2588.65 289.47"/><polygon class="cls-5" points="2588.65 270.72 2588.65 286.89 3078.35 279.53 3078.48 270.54 2588.65 270.72"/><polygon class="cls-5" points="2588.65 270.72 3058.56 270.55 3058.67 261.24 2588.65 254.95 2588.65 270.72"/><polygon class="cls-2" points="2588.65 286.89 2588.65 289.47 3099.89 279.76 3078.34 279.53 2588.65 286.89"/></g></g></g></g></g></g><g id="icon"><g class="cls-6"><g class="cls-11"><rect class="cls-1" x="-1372" y="-38" width="4119.33" height="3089.5"/></g></g></g></g></svg>