<?xml version="1.0" encoding="UTF-8"?><svg id="logos" xmlns="http://www.w3.org/2000/svg" xmlns:xlink="http://www.w3.org/1999/xlink" viewBox="0 0 1536 2048"><defs><style>.cls-1{fill:#6952a1;}.cls-1,.cls-2,.cls-3,.cls-4,.cls-5,.cls-6,.cls-7,.cls-8,.cls-9,.cls-10,.cls-11,.cls-12,.cls-13,.cls-14{stroke-width:0px;}.cls-2{fill:url(#linear-gradient);}.cls-3{fill:#eccea8;}.cls-4{fill:#989fc9;}.cls-15{clip-path:url(#clippath-2);}.cls-16{clip-path:url(#clippath-6);}.cls-5{fill:#a4abd5;}.cls-6{fill:none;}.cls-7,.cls-17{fill:#7f47dd;}.cls-18{clip-path:url(#clippath-7);}.cls-19{clip-path:url(#clippath-1);}.cls-20{clip-path:url(#clippath-4);}.cls-8{fill:url(#linear-gradient-2);}.cls-9{fill:url(#linear-gradient-3);}.cls-21{clip-path:url(#clippath);}.cls-10{fill:#654ea3;}.cls-22{clip-path:url(#clippath-3);}.cls-11{fill:#a09cc5;}.cls-12{fill:#a4abd5;}.cls-13{fill:#c5a2cc;}.cls-23{clip-path:url(#clippath-5);}.cls-14{fill:url(#linear-gradient-4);}</style><clipPath id="clippath"><rect class="cls-6" x="1636" width="1536" height="2048"/></clipPath><clipPath id="clippath-1"><rect class="cls-6" x="841.75" y="-204.2" width="3003.14" height="2252.36"/></clipPath><clipPath id="clippath-2"><rect id="mask-2" class="cls-7" x="-256" y="256" width="2048" height="1536" transform="translate(1792 256) rotate(90)"/></clipPath><clipPath id="clippath-3"><rect class="cls-6" x="-779.7" y="-533.94" width="2995.93" height="2246.95"/></clipPath><clipPath id="clippath-4"><polygon class="cls-6" points="764.04 844.71 488.38 845.94 233.48 891.6 233.48 828.36 764.5 789.81 764.04 844.71"/></clipPath><linearGradient id="linear-gradient" x1="954.82" y1="-2460.02" x2="956.28" y2="-2460.02" gradientTransform="translate(-51073.64 20878.19) rotate(-90) scale(20.96 -20.96)" gradientUnits="userSpaceOnUse"><stop offset="0" stop-color="#654ea3"/><stop offset=".1" stop-color="#654ea3"/><stop offset="1" stop-color="#60449a"/></linearGradient><clipPath id="clippath-5"><polygon class="cls-6" points="1084.05 1174.37 773 1189.13 506.5 1294.49 506.5 1212.65 1084.05 1104.12 1084.05 1174.37"/></clipPath><linearGradient id="linear-gradient-2" x1="1008.15" y1="-2479.06" x2="1009.62" y2="-2479.06" gradientTransform="translate(-72205.98 30903.82) rotate(-90) scale(29.45 -29.45)" gradientUnits="userSpaceOnUse"><stop offset="0" stop-color="#654ea3"/><stop offset=".79" stop-color="#61469c"/><stop offset="1" stop-color="#60449a"/></linearGradient><clipPath id="clippath-6"><polygon class="cls-6" points="1503.03 1087.23 1264.79 1096.3 1084.05 1174.37 1084.05 1104.12 1505.21 1028.35 1503.03 1087.23"/></clipPath><linearGradient id="linear-gradient-3" x1="1025.39" y1="-2484.83" x2="1026.86" y2="-2484.83" gradientTransform="translate(-80543.16 34905.86) rotate(-90) scale(32.94 -32.94)" gradientUnits="userSpaceOnUse"><stop offset="0" stop-color="#654ea3"/><stop offset=".65" stop-color="#62499e"/><stop offset="1" stop-color="#60449a"/></linearGradient><clipPath id="clippath-7"><polygon class="cls-6" points="1169.23 808.9 938.01 810.15 764.04 844.71 764.5 789.81 1169.99 757.77 1169.23 808.9"/></clipPath><linearGradient id="linear-gradient-4" x1="1001.82" y1="-2485.34" x2="1003.29" y2="-2485.34" gradientTransform="translate(-68633.24 28884.94) rotate(-90) scale(28 -28)" gradientUnits="userSpaceOnUse"><stop offset="0" stop-color="#654ea3"/><stop offset=".63" stop-color="#634ba0"/><stop offset="1" stop-color="#60449a"/></linearGradient></defs><g id="noncombined"><g id="logo"><g class="cls-21"><g class="cls-19"><rect class="cls-3" x="841.75" y="-204.2" width="3003.14" height="2252.36"/><polygon class="cls-10" points="841.77 1786.71 841.77 1896.79 3832.64 1274.72 3835.16 1229.21 841.77 1786.71"/><polygon class="cls-10" points="841.77 1624.31 841.77 1720.7 3722.23 1219.58 3724.07 1181.69 841.77 1624.31"/><polygon class="cls-10" points="841.77 1481.31 841.77 1574.7 3613.2 1175.5 3613.23 1136.07 841.77 1481.31"/><polygon class="cls-10" points="841.77 1345.35 841.75 1437.77 3507.98 1135.9 3509.44 1093.05 841.77 1345.35"/><polygon class="cls-10" points="841.77 1233.61 841.77 1314.53 3404.32 1088.05 3406.14 1051.26 841.77 1233.61"/><polygon class="cls-10" points="841.77 1135.75 841.77 1210.74 3302.48 1045.69 3303.8 1006.73 841.77 1135.75"/><polygon class="cls-10" points="841.76 1046.67 841.77 1116.87 3205.96 1003.87 3206.88 963.77 841.76 1046.67"/><polygon class="cls-10" points="841.77 963.89 841.77 1035.14 3111.91 961.78 3112.96 920.74 841.77 963.89"/><polygon class="cls-10" points="841.77 880.6 841.77 952.45 3017.27 919.71 3017.86 879.79 841.77 880.6"/><polygon class="cls-10" points="841.77 880.6 2929.36 879.83 2929.85 838.5 841.77 810.53 841.77 880.6"/><polygon class="cls-5" points="841.77 1720.7 841.77 1786.71 3835.16 1229.21 3722.23 1219.58 841.77 1720.7"/><polygon class="cls-5" points="841.77 1574.7 841.77 1624.32 3724.07 1181.69 3613.23 1175.49 841.77 1574.7"/><polygon class="cls-5" points="841.75 1437.77 841.77 1481.31 3613.23 1136.07 3507.98 1135.9 841.75 1437.77"/><polygon class="cls-5" points="841.77 1314.53 841.77 1345.35 3509.44 1093.05 3404.32 1088.06 841.77 1314.53"/><polygon class="cls-5" points="841.77 1210.74 841.77 1233.61 3406.14 1051.26 3302.48 1045.69 841.77 1210.74"/><polygon class="cls-5" points="841.77 1116.87 841.77 1135.75 3303.8 1006.73 3205.96 1003.87 841.77 1116.87"/><polygon class="cls-5" points="841.77 1035.14 841.76 1046.67 3206.88 963.76 3111.91 961.78 841.77 1035.14"/><polygon class="cls-5" points="841.75 1896.79 841.77 2048.15 3844.89 2048.15 3844.89 1272.17 841.75 1896.79"/><polygon class="cls-5" points="841.77 952.45 841.77 963.89 3112.96 920.74 3017.24 919.71 841.77 952.45"/></g></g></g><g id="logo-2"><rect id="mask" class="cls-17" x="-256" y="256" width="2048" height="1536" transform="translate(1792 256) rotate(90)"/><g class="cls-15"><g id="extended_base"><polygon class="cls-12" points="2214.77 2423.95 -781.15 2403.47 -781.17 1583.95 2214.77 960.83 2214.77 2423.95"/></g><g class="cls-22"><rect class="cls-3" x="-779.7" y="-533.94" width="2995.93" height="2246.95"/><polygon class="cls-10" points="-779.68 1452.19 -779.68 1562 2204.01 941.43 2206.53 896.03 -779.68 1452.19"/><polygon class="cls-10" points="-779.68 1290.19 -779.68 1386.34 2093.86 886.42 2095.7 848.63 -779.68 1290.19"/><polygon class="cls-10" points="-779.68 1147.52 -779.68 1240.69 1985.1 842.44 1985.13 803.11 -779.68 1147.52"/><polygon class="cls-10" points="-779.68 1011.89 -779.7 1104.08 1880.13 802.94 1881.59 760.2 -779.68 1011.89"/><polygon class="cls-10" points="-779.68 900.42 -779.68 981.14 1776.72 755.21 1778.54 718.51 -779.68 900.42"/><polygon class="cls-10" points="-779.68 802.79 -779.68 877.6 1675.12 712.95 1676.44 674.08 -779.68 802.79"/><polygon class="cls-10" points="-779.68 713.93 -779.68 783.96 1578.83 671.23 1579.75 631.22 -779.68 713.93"/><polygon class="cls-10" points="-779.68 631.34 -779.68 702.43 1485.01 629.24 1486.06 588.3 -779.68 631.34"/><polygon class="cls-10" points="-779.68 548.26 -779.68 619.93 1390.6 587.28 1391.18 547.45 -779.68 548.26"/><polygon class="cls-10" points="-779.68 548.26 1302.89 547.48 1303.39 506.26 -779.68 478.35 -779.68 548.26"/><polygon class="cls-5" points="-779.68 1386.34 -779.68 1452.19 2206.53 896.03 2093.86 886.42 -779.68 1386.34"/><polygon class="cls-5" points="-779.68 1240.69 -779.68 1290.19 2095.7 848.63 1985.13 842.44 -779.68 1240.69"/><polygon class="cls-5" points="-779.7 1104.08 -779.68 1147.52 1985.13 803.11 1880.13 802.94 -779.7 1104.08"/><polygon class="cls-5" points="-779.68 981.14 -779.68 1011.89 1881.59 760.2 1776.72 755.21 -779.68 981.14"/><polygon class="cls-5" points="-779.68 877.6 -779.68 900.41 1778.54 718.51 1675.12 712.95 -779.68 877.6"/><polygon class="cls-5" points="-779.68 783.96 -779.68 802.79 1676.44 674.08 1578.83 671.23 -779.68 783.96"/><polygon class="cls-5" points="-779.68 702.43 -779.68 713.93 1579.75 631.22 1485.01 629.24 -779.68 702.43"/><polygon class="cls-5" points="-779.7 1562 -779.68 1713.01 2216.23 1713.01 2216.23 938.89 -779.7 1562"/><polygon class="cls-5" points="-779.68 619.93 -779.68 631.34 1486.06 588.3 1390.57 587.28 -779.68 619.93"/><g class="cls-20"><rect class="cls-2" x="229.98" y="766.14" width="538.03" height="149.13" transform="translate(-73.57 48.27) rotate(-5.16)"/></g><g class="cls-23"><rect class="cls-8" x="494.96" y="1058.96" width="600.63" height="280.69" transform="translate(-182.35 143.35) rotate(-9.25)"/></g><g class="cls-16"><rect class="cls-9" x="1073.23" y="984.43" width="442.8" height="233.86" transform="translate(-208.01 306.92) rotate(-12.52)"/></g><polygon class="cls-4" points="506.5 1294.49 773 1189.13 1084.05 1174.37 506.5 1294.49"/><polygon class="cls-11" points="233.48 891.6 488.38 845.94 764.03 844.71 233.48 891.6"/><polygon class="cls-11" points="764.04 844.71 938.01 810.15 1169.23 808.9 764.04 844.71"/><g class="cls-18"><rect class="cls-14" x="760.55" y="736.29" width="412.93" height="129.91" transform="translate(-80.23 108.15) rotate(-6.15)"/></g><polygon class="cls-4" points="1084.05 1174.37 1264.79 1096.3 1503.02 1087.23 1084.05 1174.37"/><polygon class="cls-5" points="1519.49 856.6 508.92 979.63 233.48 891.6 1169.23 808.9 1519.49 856.6"/><polygon class="cls-5" points="1178.86 607.77 231.06 631.22 4.15 608.14 820.03 595.86 1178.86 607.77"/><polygon class="cls-1" points="1087.74 974.82 508.11 1058.14 508.92 979.87 1092.53 908.91 1087.74 974.82"/><polygon class="cls-1" points="767.21 677.86 231.88 697.79 231.06 631.22 769.03 617.91 767.21 677.86"/><polygon class="cls-1" points="765.68 734.74 232.69 764.29 231.88 697.79 767.21 677.86 765.68 734.74"/><polygon class="cls-1" points="764.5 789.81 233.48 828.36 232.69 764.29 765.68 734.74 764.5 789.81"/><polygon class="cls-1" points="1175.88 658.83 767.21 677.86 769.03 617.91 1178.86 607.77 1175.88 658.83"/><polygon class="cls-1" points="1172.98 708.34 765.68 734.74 767.21 677.87 1175.88 658.83 1172.98 708.34"/><polygon class="cls-1" points="1169.99 761.8 764.5 789.81 765.68 734.74 1172.97 708.34 1169.99 761.8"/><polygon class="cls-1" points="1086.22 1041.05 507.31 1135.33 508.11 1058.14 1087.65 974.83 1086.22 1041.05"/><polygon class="cls-1" points="1514.13 915.83 1087.65 974.83 1092.53 908.91 1519.49 856.6 1514.13 915.83"/><polygon class="cls-1" points="1508.58 974.83 1086.22 1041.05 1087.74 974.81 1514.13 915.84 1508.58 974.83"/><polygon class="cls-1" points="1505.21 1028.35 1084.05 1104.12 1086.22 1041.05 1508.58 974.83 1505.21 1028.35"/><polygon class="cls-1" points="1084.05 1104.12 506.5 1212.65 507.31 1135.33 1086.22 1041.05 1084.05 1104.12"/><polygon class="cls-13" points="506.5 1212.65 428.32 1176.18 426.78 1104.91 361.5 1076.31 361.04 1006.01 291.71 982.78 292.56 910.48 508.92 979.87 506.5 1212.65"/><polygon class="cls-13" points="233.48 828.36 176.31 813.48 176.35 752.69 128.13 740.6 126.98 682.13 78.86 674.68 76.68 615.51 231.06 631.22 233.48 828.36"/><polygon class="cls-1" points="447.93 601.46 34.95 607.67 33.83 488.25 450.32 493.95 447.93 601.46"/><polygon class="cls-1" points="820.03 595.86 447.93 601.46 450.32 493.95 821.2 498.61 820.03 595.86"/><polygon class="cls-13" points="34.39 547.95 -5.01 547.97 -6.62 488.71 33.84 488.25 34.39 547.95"/></g></g></g></g></svg>